<svg width="521" height="182" viewBox="0 0 521 182" fill="none" xmlns="http://www.w3.org/2000/svg">
<g clip-path="url(#clip0_21_2767)">
<path d="M78.5002 171C119.446 171 152.639 137.807 152.639 96.8611C152.639 55.9153 119.446 22.7222 78.5002 22.7222C37.5544 22.7222 4.36133 55.9153 4.36133 96.8611C4.36133 137.807 37.5544 171 78.5002 171Z" fill="#F4900C"/>
<path d="M78.5002 162.278C119.446 162.278 152.639 129.085 152.639 88.1389C152.639 47.1931 119.446 14 78.5002 14C37.5544 14 4.36133 47.1931 4.36133 88.1389C4.36133 129.085 37.5544 162.278 78.5002 162.278Z" fill="#FFCC4D"/>
<path d="M78.4999 153.556C112.22 153.556 139.555 126.22 139.555 92.5C139.555 58.78 112.22 31.4445 78.4999 31.4445C44.7798 31.4445 17.4443 58.78 17.4443 92.5C17.4443 126.22 44.7798 153.556 78.4999 153.556Z" fill="#FFE8B6"/>
<path d="M78.4999 149.194C112.22 149.194 139.555 121.859 139.555 88.1389C139.555 54.4188 112.22 27.0833 78.4999 27.0833C44.7798 27.0833 17.4443 54.4188 17.4443 88.1389C17.4443 121.859 44.7798 149.194 78.4999 149.194Z" fill="#FFAC33"/>
<path d="M41.6182 61.3442C41.6182 58.9674 43.9514 58.0167 43.9514 58.0167L78.3082 41.8806L112.992 58.0167C112.992 58.0167 115.382 58.5487 115.382 61.3617V64.1571H41.6182V61.3442Z" fill="#FFE8B6"/>
<path d="M113.079 69.9792C113.079 67.4323 110.877 65.3695 108.164 65.3695H48.5347C45.8177 65.3695 43.925 67.4323 43.925 69.9792C43.925 71.7106 44.8147 73.2021 46.232 73.9915V76.896H55.4514V74.5889H64.6708V76.896H73.8902V74.5889H83.1096V76.896H92.329V74.5889H101.548V76.896H110.772V73.8737C112.155 73.0538 113.079 71.619 113.079 69.9792ZM119.992 118.667C119.992 120.577 118.443 122.125 116.533 122.125H40.4667C38.5565 122.125 37.0083 120.577 37.0083 118.667C37.0083 116.757 38.5565 115.208 40.4667 115.208H116.538C118.443 115.208 119.992 116.757 119.992 118.667V118.667Z" fill="#F4900C"/>
<path d="M115.382 67.2056C115.382 68.479 114.353 69.5126 113.075 69.5126H43.9208C42.6474 69.5126 41.6138 68.479 41.6138 67.2056C41.6138 65.9321 42.6474 64.8985 43.9208 64.8985L113.075 64.9116C114.353 64.916 115.382 65.9321 115.382 67.2056V67.2056ZM53.1445 69.8833H103.86V75.0556H53.1445V69.8833Z" fill="#F4900C"/>
<path d="M55.4471 104.838C55.4471 107.384 54.069 109.447 52.3726 109.447H49.298C47.6015 109.447 46.2234 107.384 46.2234 104.838V69.8876C46.2234 67.3408 47.6015 65.278 49.298 65.278H52.3726C54.069 65.278 55.4471 67.3408 55.4471 69.8876V104.838ZM110.772 104.838C110.772 107.384 109.398 109.447 107.698 109.447H104.623C102.927 109.447 101.548 107.384 101.548 104.838V69.8876C101.548 67.3408 102.922 65.278 104.623 65.278H107.698C109.394 65.278 110.772 67.3408 110.772 69.8876V104.838ZM73.8903 104.838C73.8903 107.384 72.5122 109.447 70.8157 109.447H67.7411C66.0446 109.447 64.6665 107.384 64.6665 104.838V69.8876C64.6665 67.3408 66.0446 65.278 67.7411 65.278H70.8157C72.5122 65.278 73.8903 67.3408 73.8903 69.8876V104.838ZM92.329 104.838C92.329 107.384 90.9509 109.447 89.2545 109.447H86.1842C84.4878 109.447 83.1097 107.384 83.1097 104.838V69.8876C83.1097 67.3408 84.4878 65.278 86.1842 65.278H89.2545C90.9509 65.278 92.329 67.3408 92.329 69.8876V104.838Z" fill="#FFD983"/>
<path d="M113.079 107.14C113.079 109.687 111.016 111.75 108.469 111.75H48.5347C45.9879 111.75 43.925 109.687 43.925 107.14C43.925 104.593 45.9879 102.531 48.5347 102.531H108.469C111.012 102.531 113.079 104.593 113.079 107.14Z" fill="#FFCC4D"/>
<path d="M117.689 111.75C117.689 114.297 115.626 116.36 113.079 116.36H43.9207C41.3738 116.36 39.311 114.297 39.311 111.75C39.311 109.203 41.3738 107.14 43.9207 107.14H113.075C115.622 107.14 117.689 109.203 117.689 111.75V111.75Z" fill="#FFD983"/>
<path d="M119.992 115.208C119.992 117.118 118.443 118.667 116.533 118.667H40.4667C38.5565 118.667 37.0083 117.118 37.0083 115.208C37.0083 113.298 38.5565 111.75 40.4667 111.75H116.538C118.443 111.75 119.992 113.298 119.992 115.208V115.208Z" fill="#FFD983"/>
<path d="M113.079 67.5806C113.079 65.0337 110.877 62.9709 108.164 62.9709H48.5347C45.8178 62.9709 43.925 65.0337 43.925 67.5806C43.925 69.312 44.8147 70.8035 46.2321 71.5928V74.4973H55.4515V72.1903H64.6709V74.4973H73.8902V72.1903H83.1096V74.4973H92.329V72.1903H101.548V74.4973H110.772V71.4751C112.155 70.6552 113.079 69.2204 113.079 67.5806Z" fill="#FFCC4D"/>
<path d="M41.6182 63.9914C41.6182 61.6146 43.9514 60.6639 43.9514 60.6639L78.3082 44.5278L112.992 60.6639C112.992 60.6639 115.382 61.1959 115.382 64.0089V65.2779H41.6182V63.9914Z" fill="#FFD983"/>
<path d="M78.5001 50.3848C78.5001 50.3848 54.7103 61.5972 52.3378 62.609C49.961 63.6164 50.7547 65.2736 52.3422 65.2736H104.545C106.996 65.2736 106.416 63.4027 104.471 62.3909C102.525 61.3835 78.5001 50.3848 78.5001 50.3848Z" fill="#FFAC33"/>
<path d="M115.382 65.2736C115.382 66.547 114.353 67.5806 113.075 67.5806H43.9208C42.6474 67.5806 41.6138 66.547 41.6138 65.2736C41.6138 64.0001 42.6474 62.9666 43.9208 62.9666L113.075 62.9796C114.353 62.984 115.382 64.0001 115.382 65.2736V65.2736Z" fill="#FFD983"/>
</g>
<path d="M185.5 80V10.1818H215.636C220.818 10.1818 225.352 11.2045 229.239 13.25C233.125 15.2955 236.148 18.1705 238.307 21.875C240.466 25.5795 241.545 29.9091 241.545 34.8636C241.545 39.8636 240.432 44.1932 238.205 47.8523C236 51.5114 232.898 54.3295 228.898 56.3068C224.92 58.2841 220.273 59.2727 214.955 59.2727H196.955V44.5455H211.136C213.364 44.5455 215.261 44.1591 216.83 43.3864C218.42 42.5909 219.636 41.4659 220.477 40.0114C221.341 38.5568 221.773 36.8409 221.773 34.8636C221.773 32.8636 221.341 31.1591 220.477 29.75C219.636 28.3182 218.42 27.2273 216.83 26.4773C215.261 25.7045 213.364 25.3182 211.136 25.3182H204.455V80H185.5ZM248.5 80V10.1818H278.636C283.818 10.1818 288.352 11.125 292.239 13.0114C296.125 14.8977 299.148 17.6136 301.307 21.1591C303.466 24.7045 304.545 28.9545 304.545 33.9091C304.545 38.9091 303.432 43.125 301.205 46.5568C299 49.9886 295.898 52.5795 291.898 54.3295C287.92 56.0795 283.273 56.9545 277.955 56.9545H259.955V42.2273H274.136C276.364 42.2273 278.261 41.9545 279.83 41.4091C281.42 40.8409 282.636 39.9432 283.477 38.7159C284.341 37.4886 284.773 35.8864 284.773 33.9091C284.773 31.9091 284.341 30.2841 283.477 29.0341C282.636 27.7614 281.42 26.8295 279.83 26.2386C278.261 25.625 276.364 25.3182 274.136 25.3182H267.455V80H248.5ZM289.409 47.9545L306.864 80H286.273L269.227 47.9545H289.409ZM380.261 45.0909C380.261 52.8636 378.75 59.4205 375.727 64.7614C372.705 70.0795 368.625 74.1136 363.489 76.8636C358.352 79.5909 352.625 80.9545 346.307 80.9545C339.943 80.9545 334.193 79.5795 329.057 76.8295C323.943 74.0568 319.875 70.0114 316.852 64.6932C313.852 59.3523 312.352 52.8182 312.352 45.0909C312.352 37.3182 313.852 30.7727 316.852 25.4545C319.875 20.1136 323.943 16.0795 329.057 13.3523C334.193 10.6023 339.943 9.22727 346.307 9.22727C352.625 9.22727 358.352 10.6023 363.489 13.3523C368.625 16.0795 372.705 20.1136 375.727 25.4545C378.75 30.7727 380.261 37.3182 380.261 45.0909ZM360.761 45.0909C360.761 40.9091 360.205 37.3864 359.091 34.5227C358 31.6364 356.375 29.4545 354.216 27.9773C352.08 26.4773 349.443 25.7273 346.307 25.7273C343.17 25.7273 340.523 26.4773 338.364 27.9773C336.227 29.4545 334.602 31.6364 333.489 34.5227C332.398 37.3864 331.852 40.9091 331.852 45.0909C331.852 49.2727 332.398 52.8068 333.489 55.6932C334.602 58.5568 336.227 60.7386 338.364 62.2386C340.523 63.7159 343.17 64.4545 346.307 64.4545C349.443 64.4545 352.08 63.7159 354.216 62.2386C356.375 60.7386 358 58.5568 359.091 55.6932C360.205 52.8068 360.761 49.2727 360.761 45.0909ZM383.841 25.4545V10.1818H444.523V25.4545H423.523V80H404.841V25.4545H383.841ZM516.011 45.0909C516.011 52.8636 514.5 59.4205 511.477 64.7614C508.455 70.0795 504.375 74.1136 499.239 76.8636C494.102 79.5909 488.375 80.9545 482.057 80.9545C475.693 80.9545 469.943 79.5795 464.807 76.8295C459.693 74.0568 455.625 70.0114 452.602 64.6932C449.602 59.3523 448.102 52.8182 448.102 45.0909C448.102 37.3182 449.602 30.7727 452.602 25.4545C455.625 20.1136 459.693 16.0795 464.807 13.3523C469.943 10.6023 475.693 9.22727 482.057 9.22727C488.375 9.22727 494.102 10.6023 499.239 13.3523C504.375 16.0795 508.455 20.1136 511.477 25.4545C514.5 30.7727 516.011 37.3182 516.011 45.0909ZM496.511 45.0909C496.511 40.9091 495.955 37.3864 494.841 34.5227C493.75 31.6364 492.125 29.4545 489.966 27.9773C487.83 26.4773 485.193 25.7273 482.057 25.7273C478.92 25.7273 476.273 26.4773 474.114 27.9773C471.977 29.4545 470.352 31.6364 469.239 34.5227C468.148 37.3864 467.602 40.9091 467.602 45.0909C467.602 49.2727 468.148 52.8068 469.239 55.6932C470.352 58.5568 471.977 60.7386 474.114 62.2386C476.273 63.7159 478.92 64.4545 482.057 64.4545C485.193 64.4545 487.83 63.7159 489.966 62.2386C492.125 60.7386 493.75 58.5568 494.841 55.6932C495.955 52.8068 496.511 49.2727 496.511 45.0909ZM250.682 127.364H231.455C231.318 125.773 230.955 124.33 230.364 123.034C229.795 121.739 229 120.625 227.977 119.693C226.977 118.739 225.761 118.011 224.33 117.511C222.898 116.989 221.273 116.727 219.455 116.727C216.273 116.727 213.58 117.5 211.375 119.045C209.193 120.591 207.534 122.807 206.398 125.693C205.284 128.58 204.727 132.045 204.727 136.091C204.727 140.364 205.295 143.943 206.432 146.83C207.591 149.693 209.261 151.852 211.443 153.307C213.625 154.739 216.25 155.455 219.318 155.455C221.068 155.455 222.636 155.239 224.023 154.807C225.409 154.352 226.614 153.705 227.636 152.864C228.659 152.023 229.489 151.011 230.125 149.83C230.784 148.625 231.227 147.273 231.455 145.773L250.682 145.909C250.455 148.864 249.625 151.875 248.193 154.943C246.761 157.989 244.727 160.807 242.091 163.398C239.477 165.966 236.239 168.034 232.375 169.602C228.511 171.17 224.023 171.955 218.909 171.955C212.5 171.955 206.75 170.58 201.659 167.83C196.591 165.08 192.58 161.034 189.625 155.693C186.693 150.352 185.227 143.818 185.227 136.091C185.227 128.318 186.727 121.773 189.727 116.455C192.727 111.114 196.773 107.08 201.864 104.352C206.955 101.602 212.636 100.227 218.909 100.227C223.318 100.227 227.375 100.83 231.08 102.034C234.784 103.239 238.034 105 240.83 107.318C243.625 109.614 245.875 112.443 247.58 115.807C249.284 119.17 250.318 123.023 250.682 127.364ZM326.918 136.091C326.918 143.864 325.406 150.42 322.384 155.761C319.361 161.08 315.281 165.114 310.145 167.864C305.009 170.591 299.281 171.955 292.963 171.955C286.599 171.955 280.849 170.58 275.713 167.83C270.599 165.057 266.531 161.011 263.509 155.693C260.509 150.352 259.009 143.818 259.009 136.091C259.009 128.318 260.509 121.773 263.509 116.455C266.531 111.114 270.599 107.08 275.713 104.352C280.849 101.602 286.599 100.227 292.963 100.227C299.281 100.227 305.009 101.602 310.145 104.352C315.281 107.08 319.361 111.114 322.384 116.455C325.406 121.773 326.918 128.318 326.918 136.091ZM307.418 136.091C307.418 131.909 306.861 128.386 305.747 125.523C304.656 122.636 303.031 120.455 300.872 118.977C298.736 117.477 296.099 116.727 292.963 116.727C289.827 116.727 287.179 117.477 285.02 118.977C282.884 120.455 281.259 122.636 280.145 125.523C279.054 128.386 278.509 131.909 278.509 136.091C278.509 140.273 279.054 143.807 280.145 146.693C281.259 149.557 282.884 151.739 285.02 153.239C287.179 154.716 289.827 155.455 292.963 155.455C296.099 155.455 298.736 154.716 300.872 153.239C303.031 151.739 304.656 149.557 305.747 146.693C306.861 143.807 307.418 140.273 307.418 136.091ZM354.642 101.182V171H335.688V101.182H354.642ZM424.034 101.182V171H408.216L382.989 134.318H382.58V171H363.625V101.182H379.716L404.534 137.727H405.08V101.182H424.034Z" fill="#F4900C"/>
<defs>
<clipPath id="clip0_21_2767">
<rect width="157" height="157" fill="white" transform="translate(0 14)"/>
</clipPath>
</defs>
</svg>
