<svg width="638" height="124" viewBox="0 0 638 124" fill="none" xmlns="http://www.w3.org/2000/svg">
<path fill-rule="evenodd" clip-rule="evenodd" d="M59.9999 113.333C91.296 113.333 116.667 87.9628 116.667 56.6667C116.667 25.3705 91.296 0 59.9999 0C28.7038 0 3.33325 25.3705 3.33325 56.6667C3.33325 87.9628 28.7038 113.333 59.9999 113.333ZM59.9999 106.667C85.7732 106.667 106.667 85.7732 106.667 59.9999C106.667 34.2266 85.7732 13.3333 59.9999 13.3333C34.2266 13.3333 13.3333 34.2266 13.3333 59.9999C13.3333 85.7732 34.2266 106.667 59.9999 106.667ZM59.9999 116.889C91.9521 116.889 118.071 91.7276 119.898 60C119.965 61.1765 120 62.362 120 63.5556C120 96.9382 93.1369 124 59.9999 124C26.8629 124 0 96.9382 0 63.5556C0 62.362 0.0343423 61.1765 0.102086 60C1.92899 91.7276 28.0477 116.889 59.9999 116.889ZM33.5934 37.3333C33.5934 37.3333 31.8101 38.06 31.8101 39.8767V41.8999V42.0267V42.7694C31.8078 42.806 31.8066 42.8429 31.8066 42.88C31.8066 43.8534 32.5966 44.6434 33.57 44.6434H35.6452C35.4448 45.1619 35.3301 45.7641 35.3301 46.4066V73.12C35.3301 73.7611 35.4443 74.3621 35.6439 74.8799H33.57C31.6233 74.8799 30.0466 76.4565 30.0466 78.4032C30.0466 78.4535 30.0477 78.5036 30.0498 78.5534C29.0226 78.9159 28.2866 79.8953 28.2866 81.0467C28.2866 82.5067 29.47 83.69 30.93 83.69H89.07C90.53 83.69 91.7133 82.5067 91.7133 81.0467C91.7133 79.8947 90.9766 78.9149 89.9502 78.5528C89.9523 78.5032 89.9533 78.4533 89.9533 78.4032C89.9533 76.4565 88.3733 74.8799 86.4266 74.8799H84.3536C84.5528 74.3621 84.6667 73.7611 84.6667 73.12V46.4066C84.6667 45.7641 84.552 45.1619 84.3516 44.6434H86.4266C87.4023 44.6434 88.1883 43.8551 88.19 42.8832H88.1901V42.0267V41.9132V39.89C88.1901 37.74 86.3634 37.3333 86.3634 37.3333L59.8534 25L33.5934 37.3333ZM77.9311 44.6434H70.2549C70.4553 45.1619 70.5701 45.7641 70.5701 46.4066V73.12C70.5701 73.7611 70.4558 74.3621 70.2562 74.8799H77.9306C77.731 74.3621 77.6167 73.7611 77.6167 73.12V46.4066C77.6167 45.7641 77.7311 45.1619 77.9311 44.6434ZM63.8385 44.6434H56.1616C56.362 45.1619 56.4767 45.7641 56.4767 46.4066V73.12C56.4767 73.7611 56.3625 74.3621 56.1629 74.8799H63.8372C63.6377 74.3621 63.5234 73.7611 63.5234 73.12V46.4066C63.5234 45.7641 63.6382 45.1619 63.8385 44.6434ZM49.7419 44.6434H42.0649C42.2653 45.1619 42.3801 45.7641 42.3801 46.4066V73.12C42.3801 73.7611 42.2658 74.3621 42.0662 74.8799H49.7406C49.541 74.3621 49.4267 73.7611 49.4267 73.12V46.4066C49.4267 45.7641 49.5415 45.1619 49.7419 44.6434ZM556.648 93V40.6364H575.466V93H556.648ZM566.057 35.1818C563.511 35.1818 561.33 34.3409 559.511 32.6591C557.693 30.9773 556.784 28.9545 556.784 26.5909C556.784 24.2273 557.693 22.2045 559.511 20.5227C561.33 18.8409 563.511 18 566.057 18C568.625 18 570.807 18.8409 572.602 20.5227C574.42 22.2045 575.33 24.2273 575.33 26.5909C575.33 28.9545 574.42 30.9773 572.602 32.6591C570.807 34.3409 568.625 35.1818 566.057 35.1818ZM487.776 49.3636H468.548C468.412 47.7727 468.048 46.3295 467.457 45.0341C466.889 43.7386 466.094 42.625 465.071 41.6932C464.071 40.7386 462.855 40.0114 461.423 39.5114C459.991 38.9886 458.366 38.7273 456.548 38.7273C453.366 38.7273 450.673 39.5 448.469 41.0455C446.287 42.5909 444.628 44.8068 443.491 47.6932C442.378 50.5795 441.821 54.0455 441.821 58.0909C441.821 62.3636 442.389 65.9432 443.526 68.8295C444.685 71.6932 446.355 73.8523 448.537 75.3068C450.719 76.7386 453.344 77.4545 456.412 77.4545C458.162 77.4545 459.73 77.2386 461.116 76.8068C462.503 76.3523 463.707 75.7046 464.73 74.8636C465.753 74.0227 466.582 73.0114 467.219 71.8295C467.878 70.625 468.321 69.2727 468.548 67.7727L487.776 67.9091C487.548 70.8636 486.719 73.875 485.287 76.9432C483.855 79.9886 481.821 82.8068 479.185 85.3977C476.571 87.9659 473.332 90.0341 469.469 91.6023C465.605 93.1705 461.116 93.9545 456.003 93.9545C449.594 93.9545 443.844 92.5795 438.753 89.8295C433.685 87.0795 429.673 83.0341 426.719 77.6932C423.787 72.3523 422.321 65.8182 422.321 58.0909C422.321 50.3182 423.821 43.7727 426.821 38.4545C429.821 33.1136 433.866 29.0795 438.957 26.3523C444.048 23.6023 449.73 22.2273 456.003 22.2273C460.412 22.2273 464.469 22.8295 468.173 24.0341C471.878 25.2386 475.128 27 477.923 29.3182C480.719 31.6136 482.969 34.4432 484.673 37.8068C486.378 41.1705 487.412 45.0227 487.776 49.3636ZM143.5 93V23.1818H173.636C178.818 23.1818 183.352 24.2045 187.239 26.25C191.125 28.2955 194.148 31.1705 196.307 34.875C198.466 38.5795 199.545 42.9091 199.545 47.8636C199.545 52.8636 198.432 57.1932 196.205 60.8523C194 64.5114 190.898 67.3295 186.898 69.3068C182.92 71.2841 178.273 72.2727 172.955 72.2727H162.455V93H143.5ZM169.136 57.5455H162.455V38.3182H169.136C171.364 38.3182 173.261 38.7045 174.83 39.4773C176.42 40.2273 177.636 41.3182 178.477 42.75C179.341 44.1591 179.773 45.8636 179.773 47.8636C179.773 49.8409 179.341 51.5568 178.477 53.0114C177.636 54.4659 176.42 55.5909 174.83 56.3864C173.261 57.1591 171.364 57.5455 169.136 57.5455ZM206.773 93V40.6364H225.045V50.5909H225.591C226.545 46.9091 228.057 44.2159 230.125 42.5114C232.216 40.8068 234.659 39.9545 237.455 39.9545C238.273 39.9545 239.08 40.0227 239.875 40.1591C240.693 40.2727 241.477 40.4432 242.227 40.6705V56.7273C241.295 56.4091 240.148 56.1705 238.784 56.0114C237.42 55.8523 236.25 55.7727 235.273 55.7727C233.432 55.7727 231.773 56.1932 230.295 57.0341C228.841 57.8523 227.693 59.0114 226.852 60.5114C226.011 61.9886 225.591 63.7273 225.591 65.7273V93H206.773ZM246.727 81.1023C248.886 85.1477 251.989 88.3068 256.034 90.5795C260.08 92.8295 264.943 93.9545 270.625 93.9545C276.307 93.9545 281.17 92.8295 285.216 90.5795C289.261 88.3068 292.364 85.1477 294.523 81.1023C296.682 77.0341 297.761 72.3182 297.761 66.9545C297.761 61.5909 296.682 56.8864 294.523 52.8409C292.364 48.7727 289.261 45.6136 285.216 43.3636C281.17 41.0909 276.307 39.9545 270.625 39.9545C264.943 39.9545 260.08 41.0909 256.034 43.3636C251.989 45.6136 248.886 48.7727 246.727 52.8409C244.568 56.8864 243.489 61.5909 243.489 66.9545C243.489 72.3182 244.568 77.0341 246.727 81.1023ZM274.886 78.4432C273.727 79.5114 272.352 80.0455 270.761 80.0455C269.08 80.0455 267.636 79.5114 266.432 78.4432C265.227 77.375 264.307 75.8523 263.67 73.875C263.034 71.8977 262.716 69.5455 262.716 66.8182C262.716 64.0682 263.034 61.7159 263.67 59.7614C264.307 57.7841 265.227 56.2614 266.432 55.1932C267.636 54.125 269.08 53.5909 270.761 53.5909C272.352 53.5909 273.727 54.125 274.886 55.1932C276.045 56.2614 276.943 57.7841 277.58 59.7614C278.216 61.7159 278.534 64.0682 278.534 66.8182C278.534 69.5455 278.216 71.8977 277.58 73.875C276.943 75.8523 276.045 77.375 274.886 78.4432ZM336.625 40.6364V54.2727H327.625V76.1591C327.625 76.8864 327.75 77.5 328 78C328.25 78.4773 328.636 78.8409 329.159 79.0909C329.682 79.3182 330.352 79.4318 331.17 79.4318C331.739 79.4318 332.398 79.3636 333.148 79.2273C333.92 79.0909 334.489 78.9773 334.852 78.8864L337.58 92.1136C336.739 92.3636 335.534 92.6704 333.966 93.0341C332.42 93.3977 330.58 93.6364 328.443 93.75C324.125 93.9773 320.5 93.5341 317.568 92.4205C314.636 91.2841 312.432 89.5 310.955 87.0682C309.477 84.6364 308.761 81.5909 308.807 77.9318V54.2727H302.125V40.6364H308.807V28.0909H327.625V40.6364H336.625ZM345.071 81.1023C347.23 85.1477 350.332 88.3068 354.378 90.5795C358.423 92.8295 363.287 93.9545 368.969 93.9545C374.651 93.9545 379.514 92.8295 383.56 90.5795C387.605 88.3068 390.707 85.1477 392.866 81.1023C395.026 77.0341 396.105 72.3182 396.105 66.9545C396.105 61.5909 395.026 56.8864 392.866 52.8409C390.707 48.7727 387.605 45.6136 383.56 43.3636C379.514 41.0909 374.651 39.9545 368.969 39.9545C363.287 39.9545 358.423 41.0909 354.378 43.3636C350.332 45.6136 347.23 48.7727 345.071 52.8409C342.912 56.8864 341.832 61.5909 341.832 66.9545C341.832 72.3182 342.912 77.0341 345.071 81.1023ZM373.23 78.4432C372.071 79.5114 370.696 80.0455 369.105 80.0455C367.423 80.0455 365.98 79.5114 364.776 78.4432C363.571 77.375 362.651 75.8523 362.014 73.875C361.378 71.8977 361.06 69.5455 361.06 66.8182C361.06 64.0682 361.378 61.7159 362.014 59.7614C362.651 57.7841 363.571 56.2614 364.776 55.1932C365.98 54.125 367.423 53.5909 369.105 53.5909C370.696 53.5909 372.071 54.125 373.23 55.1932C374.389 56.2614 375.287 57.7841 375.923 59.7614C376.56 61.7159 376.878 64.0682 376.878 66.8182C376.878 69.5455 376.56 71.8977 375.923 73.875C375.287 75.8523 374.389 77.375 373.23 78.4432ZM507.284 90.5795C511.33 92.8295 516.193 93.9545 521.875 93.9545C527.557 93.9545 532.42 92.8295 536.466 90.5795C540.511 88.3068 543.614 85.1477 545.773 81.1023C547.932 77.0341 549.011 72.3182 549.011 66.9545C549.011 61.5909 547.932 56.8864 545.773 52.8409C543.614 48.7727 540.511 45.6136 536.466 43.3636C532.42 41.0909 527.557 39.9545 521.875 39.9545C516.193 39.9545 511.33 41.0909 507.284 43.3636C503.239 45.6136 500.136 48.7727 497.977 52.8409C495.818 56.8864 494.739 61.5909 494.739 66.9545C494.739 72.3182 495.818 77.0341 497.977 81.1023C500.136 85.1477 503.239 88.3068 507.284 90.5795ZM526.136 78.4432C524.977 79.5114 523.602 80.0455 522.011 80.0455C520.33 80.0455 518.886 79.5114 517.682 78.4432C516.477 77.375 515.557 75.8523 514.92 73.875C514.284 71.8977 513.966 69.5455 513.966 66.8182C513.966 64.0682 514.284 61.7159 514.92 59.7614C515.557 57.7841 516.477 56.2614 517.682 55.1932C518.886 54.125 520.33 53.5909 522.011 53.5909C523.602 53.5909 524.977 54.125 526.136 55.1932C527.295 56.2614 528.193 57.7841 528.83 59.7614C529.466 61.7159 529.784 64.0682 529.784 66.8182C529.784 69.5455 529.466 71.8977 528.83 73.875C528.193 75.8523 527.295 77.375 526.136 78.4432ZM603.872 93V63.5455C603.895 61.8182 604.213 60.3409 604.827 59.1136C605.44 57.8636 606.315 56.9091 607.452 56.25C608.611 55.5682 609.963 55.2273 611.509 55.2273C613.872 55.2273 615.713 55.9659 617.031 57.4432C618.372 58.9205 619.031 60.9545 619.009 63.5455V93H637.827V59.5909C637.849 55.7955 637.099 52.4205 635.577 49.4659C634.077 46.5114 631.952 44.1932 629.202 42.5114C626.474 40.8068 623.259 39.9545 619.554 39.9545C615.713 39.9545 612.349 40.8977 609.463 42.7841C606.599 44.6705 604.599 47.2727 603.463 50.5909H602.918V40.6364H585.054V93H603.872Z" fill="black"/>
</svg>
