<svg width="598" height="72" viewBox="0 0 598 72" fill="none" xmlns="http://www.w3.org/2000/svg">
<path d="M0.5 71V1.18182H30.6364C35.8182 1.18182 40.3523 2.20454 44.2386 4.25C48.125 6.29545 51.1477 9.17045 53.3068 12.875C55.4659 16.5795 56.5455 20.9091 56.5455 25.8636C56.5455 30.8636 55.4318 35.1932 53.2045 38.8523C51 42.5114 47.8977 45.3295 43.8977 47.3068C39.9205 49.2841 35.2727 50.2727 29.9545 50.2727H11.9545V35.5455H26.1364C28.3636 35.5455 30.2614 35.1591 31.8295 34.3864C33.4205 33.5909 34.6364 32.4659 35.4773 31.0114C36.3409 29.5568 36.7727 27.8409 36.7727 25.8636C36.7727 23.8636 36.3409 22.1591 35.4773 20.75C34.6364 19.3182 33.4205 18.2273 31.8295 17.4773C30.2614 16.7045 28.3636 16.3182 26.1364 16.3182H19.4545V71H0.5ZM63.5 71V1.18182H93.6364C98.8182 1.18182 103.352 2.125 107.239 4.01136C111.125 5.89773 114.148 8.61364 116.307 12.1591C118.466 15.7045 119.545 19.9545 119.545 24.9091C119.545 29.9091 118.432 34.125 116.205 37.5568C114 40.9886 110.898 43.5795 106.898 45.3295C102.92 47.0795 98.2727 47.9545 92.9545 47.9545H74.9545V33.2273H89.1364C91.3636 33.2273 93.2614 32.9545 94.8295 32.4091C96.4205 31.8409 97.6364 30.9432 98.4773 29.7159C99.3409 28.4886 99.7727 26.8864 99.7727 24.9091C99.7727 22.9091 99.3409 21.2841 98.4773 20.0341C97.6364 18.7614 96.4205 17.8295 94.8295 17.2386C93.2614 16.625 91.3636 16.3182 89.1364 16.3182H82.4545V71H63.5ZM104.409 38.9545L121.864 71H101.273L84.2273 38.9545H104.409ZM195.261 36.0909C195.261 43.8636 193.75 50.4205 190.727 55.7614C187.705 61.0795 183.625 65.1136 178.489 67.8636C173.352 70.5909 167.625 71.9545 161.307 71.9545C154.943 71.9545 149.193 70.5795 144.057 67.8295C138.943 65.0568 134.875 61.0114 131.852 55.6932C128.852 50.3523 127.352 43.8182 127.352 36.0909C127.352 28.3182 128.852 21.7727 131.852 16.4545C134.875 11.1136 138.943 7.07954 144.057 4.35227C149.193 1.60227 154.943 0.22727 161.307 0.22727C167.625 0.22727 173.352 1.60227 178.489 4.35227C183.625 7.07954 187.705 11.1136 190.727 16.4545C193.75 21.7727 195.261 28.3182 195.261 36.0909ZM175.761 36.0909C175.761 31.9091 175.205 28.3864 174.091 25.5227C173 22.6364 171.375 20.4545 169.216 18.9773C167.08 17.4773 164.443 16.7273 161.307 16.7273C158.17 16.7273 155.523 17.4773 153.364 18.9773C151.227 20.4545 149.602 22.6364 148.489 25.5227C147.398 28.3864 146.852 31.9091 146.852 36.0909C146.852 40.2727 147.398 43.8068 148.489 46.6932C149.602 49.5568 151.227 51.7386 153.364 53.2386C155.523 54.7159 158.17 55.4545 161.307 55.4545C164.443 55.4545 167.08 54.7159 169.216 53.2386C171.375 51.7386 173 49.5568 174.091 46.6932C175.205 43.8068 175.761 40.2727 175.761 36.0909ZM198.841 16.4545V1.18182H259.523V16.4545H238.523V71H219.841V16.4545H198.841ZM331.011 36.0909C331.011 43.8636 329.5 50.4205 326.477 55.7614C323.455 61.0795 319.375 65.1136 314.239 67.8636C309.102 70.5909 303.375 71.9545 297.057 71.9545C290.693 71.9545 284.943 70.5795 279.807 67.8295C274.693 65.0568 270.625 61.0114 267.602 55.6932C264.602 50.3523 263.102 43.8182 263.102 36.0909C263.102 28.3182 264.602 21.7727 267.602 16.4545C270.625 11.1136 274.693 7.07954 279.807 4.35227C284.943 1.60227 290.693 0.22727 297.057 0.22727C303.375 0.22727 309.102 1.60227 314.239 4.35227C319.375 7.07954 323.455 11.1136 326.477 16.4545C329.5 21.7727 331.011 28.3182 331.011 36.0909ZM311.511 36.0909C311.511 31.9091 310.955 28.3864 309.841 25.5227C308.75 22.6364 307.125 20.4545 304.966 18.9773C302.83 17.4773 300.193 16.7273 297.057 16.7273C293.92 16.7273 291.273 17.4773 289.114 18.9773C286.977 20.4545 285.352 22.6364 284.239 25.5227C283.148 28.3864 282.602 31.9091 282.602 36.0909C282.602 40.2727 283.148 43.8068 284.239 46.6932C285.352 49.5568 286.977 51.7386 289.114 53.2386C291.273 54.7159 293.92 55.4545 297.057 55.4545C300.193 55.4545 302.83 54.7159 304.966 53.2386C307.125 51.7386 308.75 49.5568 309.841 46.6932C310.955 43.8068 311.511 40.2727 311.511 36.0909ZM424.088 27.3636H404.861C404.724 25.7727 404.361 24.3295 403.77 23.0341C403.202 21.7386 402.406 20.625 401.384 19.6932C400.384 18.7386 399.168 18.0114 397.736 17.5114C396.304 16.9886 394.679 16.7273 392.861 16.7273C389.679 16.7273 386.986 17.5 384.781 19.0455C382.599 20.5909 380.94 22.8068 379.804 25.6932C378.69 28.5795 378.134 32.0455 378.134 36.0909C378.134 40.3636 378.702 43.9432 379.838 46.8295C380.997 49.6932 382.668 51.8523 384.849 53.3068C387.031 54.7386 389.656 55.4545 392.724 55.4545C394.474 55.4545 396.043 55.2386 397.429 54.8068C398.815 54.3523 400.02 53.7045 401.043 52.8636C402.065 52.0227 402.895 51.0114 403.531 49.8295C404.19 48.625 404.634 47.2727 404.861 45.7727L424.088 45.9091C423.861 48.8636 423.031 51.875 421.599 54.9432C420.168 57.9886 418.134 60.8068 415.497 63.3977C412.884 65.9659 409.645 68.0341 405.781 69.6023C401.918 71.1705 397.429 71.9545 392.315 71.9545C385.906 71.9545 380.156 70.5795 375.065 67.8295C369.997 65.0795 365.986 61.0341 363.031 55.6932C360.099 50.3523 358.634 43.8182 358.634 36.0909C358.634 28.3182 360.134 21.7727 363.134 16.4545C366.134 11.1136 370.179 7.07954 375.27 4.35227C380.361 1.60227 386.043 0.22727 392.315 0.22727C396.724 0.22727 400.781 0.829542 404.486 2.03409C408.19 3.23863 411.44 5 414.236 7.31818C417.031 9.61363 419.281 12.4432 420.986 15.8068C422.69 19.1705 423.724 23.0227 424.088 27.3636ZM500.324 36.0909C500.324 43.8636 498.813 50.4205 495.79 55.7614C492.767 61.0795 488.688 65.1136 483.551 67.8636C478.415 70.5909 472.688 71.9545 466.369 71.9545C460.006 71.9545 454.256 70.5795 449.119 67.8295C444.006 65.0568 439.938 61.0114 436.915 55.6932C433.915 50.3523 432.415 43.8182 432.415 36.0909C432.415 28.3182 433.915 21.7727 436.915 16.4545C439.938 11.1136 444.006 7.07954 449.119 4.35227C454.256 1.60227 460.006 0.22727 466.369 0.22727C472.688 0.22727 478.415 1.60227 483.551 4.35227C488.688 7.07954 492.767 11.1136 495.79 16.4545C498.813 21.7727 500.324 28.3182 500.324 36.0909ZM480.824 36.0909C480.824 31.9091 480.267 28.3864 479.153 25.5227C478.062 22.6364 476.438 20.4545 474.278 18.9773C472.142 17.4773 469.506 16.7273 466.369 16.7273C463.233 16.7273 460.585 17.4773 458.426 18.9773C456.29 20.4545 454.665 22.6364 453.551 25.5227C452.46 28.3864 451.915 31.9091 451.915 36.0909C451.915 40.2727 452.46 43.8068 453.551 46.6932C454.665 49.5568 456.29 51.7386 458.426 53.2386C460.585 54.7159 463.233 55.4545 466.369 55.4545C469.506 55.4545 472.142 54.7159 474.278 53.2386C476.438 51.7386 478.062 49.5568 479.153 46.6932C480.267 43.8068 480.824 40.2727 480.824 36.0909ZM528.048 1.18182V71H509.094V1.18182H528.048ZM597.44 1.18182V71H581.622L556.395 34.3182H555.986V71H537.031V1.18182H553.122L577.94 37.7273H578.486V1.18182H597.44Z" fill="#F4900C"/>
</svg>
