<svg width="157" height="157" viewBox="0 0 157 157" fill="none" xmlns="http://www.w3.org/2000/svg">
<g clip-path="url(#clip0_21_2768)">
<path d="M78.5002 157C119.446 157 152.639 123.807 152.639 82.8611C152.639 41.9153 119.446 8.72223 78.5002 8.72223C37.5544 8.72223 4.36133 41.9153 4.36133 82.8611C4.36133 123.807 37.5544 157 78.5002 157Z" fill="#F4900C"/>
<path d="M78.5002 148.278C119.446 148.278 152.639 115.085 152.639 74.1389C152.639 33.1931 119.446 0 78.5002 0C37.5544 0 4.36133 33.1931 4.36133 74.1389C4.36133 115.085 37.5544 148.278 78.5002 148.278Z" fill="#FFCC4D"/>
<path d="M78.4999 139.556C112.22 139.556 139.555 112.22 139.555 78.5C139.555 44.78 112.22 17.4445 78.4999 17.4445C44.7798 17.4445 17.4443 44.78 17.4443 78.5C17.4443 112.22 44.7798 139.556 78.4999 139.556Z" fill="#FFE8B6"/>
<path d="M78.4999 135.194C112.22 135.194 139.555 107.859 139.555 74.1389C139.555 40.4188 112.22 13.0833 78.4999 13.0833C44.7798 13.0833 17.4443 40.4188 17.4443 74.1389C17.4443 107.859 44.7798 135.194 78.4999 135.194Z" fill="#FFAC33"/>
<path d="M41.6182 47.3442C41.6182 44.9674 43.9514 44.0167 43.9514 44.0167L78.3082 27.8806L112.992 44.0167C112.992 44.0167 115.382 44.5487 115.382 47.3617V50.1571H41.6182V47.3442Z" fill="#FFE8B6"/>
<path d="M113.079 55.9792C113.079 53.4323 110.877 51.3695 108.164 51.3695H48.5347C45.8177 51.3695 43.925 53.4323 43.925 55.9792C43.925 57.7106 44.8147 59.2021 46.232 59.9915V62.896H55.4514V60.5889H64.6708V62.896H73.8902V60.5889H83.1096V62.896H92.329V60.5889H101.548V62.896H110.772V59.8737C112.155 59.0538 113.079 57.619 113.079 55.9792ZM119.992 104.667C119.992 106.577 118.443 108.125 116.533 108.125H40.4667C38.5565 108.125 37.0083 106.577 37.0083 104.667C37.0083 102.757 38.5565 101.208 40.4667 101.208H116.538C118.443 101.208 119.992 102.757 119.992 104.667Z" fill="#F4900C"/>
<path d="M115.382 53.2056C115.382 54.479 114.353 55.5126 113.075 55.5126H43.9208C42.6474 55.5126 41.6138 54.479 41.6138 53.2056C41.6138 51.9321 42.6474 50.8985 43.9208 50.8985L113.075 50.9116C114.353 50.916 115.382 51.9321 115.382 53.2056ZM53.1445 55.8833H103.86V61.0556H53.1445V55.8833Z" fill="#F4900C"/>
<path d="M55.4471 90.8376C55.4471 93.3845 54.069 95.4473 52.3726 95.4473H49.298C47.6015 95.4473 46.2234 93.3845 46.2234 90.8376V55.8876C46.2234 53.3408 47.6015 51.278 49.298 51.278H52.3726C54.069 51.278 55.4471 53.3408 55.4471 55.8876V90.8376ZM110.772 90.8376C110.772 93.3845 109.398 95.4473 107.698 95.4473H104.623C102.927 95.4473 101.548 93.3845 101.548 90.8376V55.8876C101.548 53.3408 102.922 51.278 104.623 51.278H107.698C109.394 51.278 110.772 53.3408 110.772 55.8876V90.8376ZM73.8903 90.8376C73.8903 93.3845 72.5122 95.4473 70.8157 95.4473H67.7411C66.0446 95.4473 64.6665 93.3845 64.6665 90.8376V55.8876C64.6665 53.3408 66.0446 51.278 67.7411 51.278H70.8157C72.5122 51.278 73.8903 53.3408 73.8903 55.8876V90.8376ZM92.329 90.8376C92.329 93.3845 90.9509 95.4473 89.2545 95.4473H86.1842C84.4878 95.4473 83.1097 93.3845 83.1097 90.8376V55.8876C83.1097 53.3408 84.4878 51.278 86.1842 51.278H89.2545C90.9509 51.278 92.329 53.3408 92.329 55.8876V90.8376Z" fill="#FFD983"/>
<path d="M113.079 93.1403C113.079 95.6871 111.016 97.7499 108.469 97.7499H48.5347C45.9879 97.7499 43.925 95.6871 43.925 93.1403C43.925 90.5934 45.9879 88.5305 48.5347 88.5305H108.469C111.012 88.5305 113.079 90.5934 113.079 93.1403Z" fill="#FFCC4D"/>
<path d="M117.689 97.7499C117.689 100.297 115.626 102.36 113.079 102.36H43.9207C41.3738 102.36 39.311 100.297 39.311 97.7499C39.311 95.2031 41.3738 93.1403 43.9207 93.1403H113.075C115.622 93.1403 117.689 95.2031 117.689 97.7499Z" fill="#FFD983"/>
<path d="M119.992 101.208C119.992 103.118 118.443 104.667 116.533 104.667H40.4667C38.5565 104.667 37.0083 103.118 37.0083 101.208C37.0083 99.2981 38.5565 97.7499 40.4667 97.7499H116.538C118.443 97.7499 119.992 99.2981 119.992 101.208Z" fill="#FFD983"/>
<path d="M113.079 53.5806C113.079 51.0337 110.877 48.9709 108.164 48.9709H48.5347C45.8178 48.9709 43.925 51.0337 43.925 53.5806C43.925 55.312 44.8147 56.8035 46.2321 57.5928V60.4973H55.4515V58.1903H64.6709V60.4973H73.8902V58.1903H83.1096V60.4973H92.329V58.1903H101.548V60.4973H110.772V57.4751C112.155 56.6552 113.079 55.2204 113.079 53.5806Z" fill="#FFCC4D"/>
<path d="M41.6182 49.9914C41.6182 47.6146 43.9514 46.6639 43.9514 46.6639L78.3082 30.5278L112.992 46.6639C112.992 46.6639 115.382 47.1959 115.382 50.0089V51.2779H41.6182V49.9914Z" fill="#FFD983"/>
<path d="M78.5001 36.3848C78.5001 36.3848 54.7103 47.5972 52.3378 48.609C49.961 49.6164 50.7547 51.2736 52.3422 51.2736H104.545C106.996 51.2736 106.416 49.4027 104.471 48.3909C102.525 47.3835 78.5001 36.3848 78.5001 36.3848Z" fill="#FFAC33"/>
<path d="M115.382 51.2736C115.382 52.547 114.353 53.5806 113.075 53.5806H43.9208C42.6474 53.5806 41.6138 52.547 41.6138 51.2736C41.6138 50.0001 42.6474 48.9666 43.9208 48.9666L113.075 48.9796C114.353 48.984 115.382 50.0001 115.382 51.2736Z" fill="#FFD983"/>
</g>
<defs>
<clipPath id="clip0_21_2768">
<rect width="157" height="157" fill="white"/>
</clipPath>
</defs>
</svg>
