<svg width="790" height="157" viewBox="0 0 790 157" fill="none" xmlns="http://www.w3.org/2000/svg">
<g clip-path="url(#clip0_21_2785)">
<g clip-path="url(#clip1_21_2785)">
<path d="M78.5002 157C119.446 157 152.639 123.807 152.639 82.8611C152.639 41.9153 119.446 8.72223 78.5002 8.72223C37.5544 8.72223 4.36133 41.9153 4.36133 82.8611C4.36133 123.807 37.5544 157 78.5002 157Z" fill="#F4900C"/>
<path d="M78.5002 148.278C119.446 148.278 152.639 115.085 152.639 74.1389C152.639 33.1931 119.446 0 78.5002 0C37.5544 0 4.36133 33.1931 4.36133 74.1389C4.36133 115.085 37.5544 148.278 78.5002 148.278Z" fill="#FFCC4D"/>
<path d="M78.4999 139.556C112.22 139.556 139.555 112.22 139.555 78.5C139.555 44.78 112.22 17.4445 78.4999 17.4445C44.7798 17.4445 17.4443 44.78 17.4443 78.5C17.4443 112.22 44.7798 139.556 78.4999 139.556Z" fill="#FFE8B6"/>
<path d="M78.4999 135.194C112.22 135.194 139.555 107.859 139.555 74.1389C139.555 40.4188 112.22 13.0833 78.4999 13.0833C44.7798 13.0833 17.4443 40.4188 17.4443 74.1389C17.4443 107.859 44.7798 135.194 78.4999 135.194Z" fill="#FFAC33"/>
<path d="M41.6182 47.3442C41.6182 44.9674 43.9514 44.0167 43.9514 44.0167L78.3082 27.8806L112.992 44.0167C112.992 44.0167 115.382 44.5487 115.382 47.3617V50.1571H41.6182V47.3442Z" fill="#FFE8B6"/>
<path d="M113.079 55.9792C113.079 53.4323 110.877 51.3695 108.164 51.3695H48.5347C45.8177 51.3695 43.925 53.4323 43.925 55.9792C43.925 57.7106 44.8147 59.2021 46.232 59.9915V62.896H55.4514V60.5889H64.6708V62.896H73.8902V60.5889H83.1096V62.896H92.329V60.5889H101.548V62.896H110.772V59.8737C112.155 59.0538 113.079 57.619 113.079 55.9792ZM119.992 104.667C119.992 106.577 118.443 108.125 116.533 108.125H40.4667C38.5565 108.125 37.0083 106.577 37.0083 104.667C37.0083 102.757 38.5565 101.208 40.4667 101.208H116.538C118.443 101.208 119.992 102.757 119.992 104.667Z" fill="#F4900C"/>
<path d="M115.382 53.2056C115.382 54.479 114.353 55.5126 113.075 55.5126H43.9208C42.6474 55.5126 41.6138 54.479 41.6138 53.2056C41.6138 51.9321 42.6474 50.8985 43.9208 50.8985L113.075 50.9116C114.353 50.916 115.382 51.9321 115.382 53.2056ZM53.1445 55.8833H103.86V61.0556H53.1445V55.8833Z" fill="#F4900C"/>
<path d="M55.4471 90.8376C55.4471 93.3845 54.069 95.4473 52.3726 95.4473H49.298C47.6015 95.4473 46.2234 93.3845 46.2234 90.8376V55.8876C46.2234 53.3408 47.6015 51.278 49.298 51.278H52.3726C54.069 51.278 55.4471 53.3408 55.4471 55.8876V90.8376ZM110.772 90.8376C110.772 93.3845 109.398 95.4473 107.698 95.4473H104.623C102.927 95.4473 101.548 93.3845 101.548 90.8376V55.8876C101.548 53.3408 102.922 51.278 104.623 51.278H107.698C109.394 51.278 110.772 53.3408 110.772 55.8876V90.8376ZM73.8903 90.8376C73.8903 93.3845 72.5122 95.4473 70.8157 95.4473H67.7411C66.0446 95.4473 64.6665 93.3845 64.6665 90.8376V55.8876C64.6665 53.3408 66.0446 51.278 67.7411 51.278H70.8157C72.5122 51.278 73.8903 53.3408 73.8903 55.8876V90.8376ZM92.329 90.8376C92.329 93.3845 90.9509 95.4473 89.2545 95.4473H86.1842C84.4878 95.4473 83.1097 93.3845 83.1097 90.8376V55.8876C83.1097 53.3408 84.4878 51.278 86.1842 51.278H89.2545C90.9509 51.278 92.329 53.3408 92.329 55.8876V90.8376Z" fill="#FFD983"/>
<path d="M113.079 93.1403C113.079 95.6871 111.016 97.7499 108.469 97.7499H48.5347C45.9879 97.7499 43.925 95.6871 43.925 93.1403C43.925 90.5934 45.9879 88.5305 48.5347 88.5305H108.469C111.012 88.5305 113.079 90.5934 113.079 93.1403Z" fill="#FFCC4D"/>
<path d="M117.689 97.7499C117.689 100.297 115.626 102.36 113.079 102.36H43.9207C41.3738 102.36 39.311 100.297 39.311 97.7499C39.311 95.2031 41.3738 93.1403 43.9207 93.1403H113.075C115.622 93.1403 117.689 95.2031 117.689 97.7499Z" fill="#FFD983"/>
<path d="M119.992 101.208C119.992 103.118 118.443 104.667 116.533 104.667H40.4667C38.5565 104.667 37.0083 103.118 37.0083 101.208C37.0083 99.2981 38.5565 97.7499 40.4667 97.7499H116.538C118.443 97.7499 119.992 99.2981 119.992 101.208Z" fill="#FFD983"/>
<path d="M113.079 53.5806C113.079 51.0337 110.877 48.9709 108.164 48.9709H48.5347C45.8178 48.9709 43.925 51.0337 43.925 53.5806C43.925 55.312 44.8147 56.8035 46.2321 57.5928V60.4973H55.4515V58.1903H64.6709V60.4973H73.8902V58.1903H83.1096V60.4973H92.329V58.1903H101.548V60.4973H110.772V57.4751C112.155 56.6552 113.079 55.2204 113.079 53.5806Z" fill="#FFCC4D"/>
<path d="M41.6182 49.9914C41.6182 47.6146 43.9514 46.6639 43.9514 46.6639L78.3082 30.5278L112.992 46.6639C112.992 46.6639 115.382 47.1959 115.382 50.0089V51.2779H41.6182V49.9914Z" fill="#FFD983"/>
<path d="M78.5001 36.3848C78.5001 36.3848 54.7103 47.5972 52.3378 48.609C49.961 49.6164 50.7547 51.2736 52.3422 51.2736H104.545C106.996 51.2736 106.416 49.4027 104.471 48.3909C102.525 47.3835 78.5001 36.3848 78.5001 36.3848Z" fill="#FFAC33"/>
<path d="M115.382 51.2736C115.382 52.547 114.353 53.5806 113.075 53.5806H43.9208C42.6474 53.5806 41.6138 52.547 41.6138 51.2736C41.6138 50.0001 42.6474 48.9666 43.9208 48.9666L113.075 48.9796C114.353 48.984 115.382 50.0001 115.382 51.2736Z" fill="#FFD983"/>
</g>
<path d="M192.5 113V43.1818H222.636C227.818 43.1818 232.352 44.2046 236.239 46.25C240.125 48.2955 243.148 51.1705 245.307 54.875C247.466 58.5796 248.545 62.9091 248.545 67.8637C248.545 72.8637 247.432 77.1932 245.205 80.8523C243 84.5114 239.898 87.3296 235.898 89.3068C231.92 91.2841 227.273 92.2728 221.955 92.2728H203.955V77.5455H218.136C220.364 77.5455 222.261 77.1591 223.83 76.3864C225.42 75.5909 226.636 74.4659 227.477 73.0114C228.341 71.5568 228.773 69.8409 228.773 67.8637C228.773 65.8637 228.341 64.1591 227.477 62.75C226.636 61.3182 225.42 60.2273 223.83 59.4773C222.261 58.7046 220.364 58.3182 218.136 58.3182H211.455V113H192.5Z" fill="#F4900C"/>
<path d="M255.5 113V43.1818H285.636C290.818 43.1818 295.352 44.125 299.239 46.0114C303.125 47.8978 306.148 50.6137 308.307 54.1591C310.466 57.7046 311.545 61.9546 311.545 66.9091C311.545 71.9091 310.432 76.125 308.205 79.5568C306 82.9887 302.898 85.5796 298.898 87.3296C294.92 89.0796 290.273 89.9546 284.955 89.9546H266.955V75.2273H281.136C283.364 75.2273 285.261 74.9546 286.83 74.4091C288.42 73.8409 289.636 72.9432 290.477 71.7159C291.341 70.4887 291.773 68.8864 291.773 66.9091C291.773 64.9091 291.341 63.2841 290.477 62.0341C289.636 60.7614 288.42 59.8296 286.83 59.2387C285.261 58.625 283.364 58.3182 281.136 58.3182H274.455V113H255.5ZM296.409 80.9546L313.864 113H293.273L276.227 80.9546H296.409Z" fill="#F4900C"/>
<path d="M387.261 78.0909C387.261 85.8637 385.75 92.4205 382.727 97.7614C379.705 103.08 375.625 107.114 370.489 109.864C365.352 112.591 359.625 113.955 353.307 113.955C346.943 113.955 341.193 112.58 336.057 109.83C330.943 107.057 326.875 103.011 323.852 97.6932C320.852 92.3523 319.352 85.8182 319.352 78.0909C319.352 70.3182 320.852 63.7728 323.852 58.4546C326.875 53.1137 330.943 49.0796 336.057 46.3523C341.193 43.6023 346.943 42.2273 353.307 42.2273C359.625 42.2273 365.352 43.6023 370.489 46.3523C375.625 49.0796 379.705 53.1137 382.727 58.4546C385.75 63.7728 387.261 70.3182 387.261 78.0909ZM367.761 78.0909C367.761 73.9091 367.205 70.3864 366.091 67.5228C365 64.6364 363.375 62.4546 361.216 60.9773C359.08 59.4773 356.443 58.7273 353.307 58.7273C350.17 58.7273 347.523 59.4773 345.364 60.9773C343.227 62.4546 341.602 64.6364 340.489 67.5228C339.398 70.3864 338.852 73.9091 338.852 78.0909C338.852 82.2728 339.398 85.8068 340.489 88.6932C341.602 91.5568 343.227 93.7387 345.364 95.2387C347.523 96.7159 350.17 97.4546 353.307 97.4546C356.443 97.4546 359.08 96.7159 361.216 95.2387C363.375 93.7387 365 91.5568 366.091 88.6932C367.205 85.8068 367.761 82.2728 367.761 78.0909Z" fill="#F4900C"/>
<path d="M390.841 58.4546V43.1818H451.523V58.4546H430.523V113H411.841V58.4546H390.841Z" fill="#F4900C"/>
<path d="M523.011 78.0909C523.011 85.8637 521.5 92.4205 518.477 97.7614C515.455 103.08 511.375 107.114 506.239 109.864C501.102 112.591 495.375 113.955 489.057 113.955C482.693 113.955 476.943 112.58 471.807 109.83C466.693 107.057 462.625 103.011 459.602 97.6932C456.602 92.3523 455.102 85.8182 455.102 78.0909C455.102 70.3182 456.602 63.7728 459.602 58.4546C462.625 53.1137 466.693 49.0796 471.807 46.3523C476.943 43.6023 482.693 42.2273 489.057 42.2273C495.375 42.2273 501.102 43.6023 506.239 46.3523C511.375 49.0796 515.455 53.1137 518.477 58.4546C521.5 63.7728 523.011 70.3182 523.011 78.0909ZM503.511 78.0909C503.511 73.9091 502.955 70.3864 501.841 67.5228C500.75 64.6364 499.125 62.4546 496.966 60.9773C494.83 59.4773 492.193 58.7273 489.057 58.7273C485.92 58.7273 483.273 59.4773 481.114 60.9773C478.977 62.4546 477.352 64.6364 476.239 67.5228C475.148 70.3864 474.602 73.9091 474.602 78.0909C474.602 82.2728 475.148 85.8068 476.239 88.6932C477.352 91.5568 478.977 93.7387 481.114 95.2387C483.273 96.7159 485.92 97.4546 489.057 97.4546C492.193 97.4546 494.83 96.7159 496.966 95.2387C499.125 93.7387 500.75 91.5568 501.841 88.6932C502.955 85.8068 503.511 82.2728 503.511 78.0909Z" fill="#F4900C"/>
<path d="M616.088 69.3637H596.861C596.724 67.7728 596.361 66.3296 595.77 65.0341C595.202 63.7387 594.406 62.625 593.384 61.6932C592.384 60.7387 591.168 60.0114 589.736 59.5114C588.304 58.9887 586.679 58.7273 584.861 58.7273C581.679 58.7273 578.986 59.5 576.781 61.0455C574.599 62.5909 572.94 64.8068 571.804 67.6932C570.69 70.5796 570.134 74.0455 570.134 78.0909C570.134 82.3637 570.702 85.9432 571.838 88.8296C572.997 91.6932 574.668 93.8523 576.849 95.3068C579.031 96.7387 581.656 97.4546 584.724 97.4546C586.474 97.4546 588.043 97.2387 589.429 96.8068C590.815 96.3523 592.02 95.7046 593.043 94.8637C594.065 94.0228 594.895 93.0114 595.531 91.8296C596.19 90.625 596.634 89.2728 596.861 87.7728L616.088 87.9091C615.861 90.8637 615.031 93.875 613.599 96.9432C612.168 99.9887 610.134 102.807 607.497 105.398C604.884 107.966 601.645 110.034 597.781 111.602C593.918 113.17 589.429 113.955 584.315 113.955C577.906 113.955 572.156 112.58 567.065 109.83C561.997 107.08 557.986 103.034 555.031 97.6932C552.099 92.3523 550.634 85.8182 550.634 78.0909C550.634 70.3182 552.134 63.7728 555.134 58.4546C558.134 53.1137 562.179 49.0796 567.27 46.3523C572.361 43.6023 578.043 42.2273 584.315 42.2273C588.724 42.2273 592.781 42.8296 596.486 44.0341C600.19 45.2387 603.44 47 606.236 49.3182C609.031 51.6137 611.281 54.4432 612.986 57.8068C614.69 61.1705 615.724 65.0228 616.088 69.3637Z" fill="#F4900C"/>
<path d="M692.324 78.0909C692.324 85.8637 690.812 92.4205 687.79 97.7614C684.767 103.08 680.688 107.114 675.551 109.864C670.415 112.591 664.688 113.955 658.369 113.955C652.006 113.955 646.256 112.58 641.119 109.83C636.006 107.057 631.937 103.011 628.915 97.6932C625.915 92.3523 624.415 85.8182 624.415 78.0909C624.415 70.3182 625.915 63.7728 628.915 58.4546C631.937 53.1137 636.006 49.0796 641.119 46.3523C646.256 43.6023 652.006 42.2273 658.369 42.2273C664.688 42.2273 670.415 43.6023 675.551 46.3523C680.688 49.0796 684.767 53.1137 687.79 58.4546C690.812 63.7728 692.324 70.3182 692.324 78.0909ZM672.824 78.0909C672.824 73.9091 672.267 70.3864 671.153 67.5228C670.063 64.6364 668.438 62.4546 666.278 60.9773C664.142 59.4773 661.506 58.7273 658.369 58.7273C655.233 58.7273 652.585 59.4773 650.426 60.9773C648.29 62.4546 646.665 64.6364 645.551 67.5228C644.46 70.3864 643.915 73.9091 643.915 78.0909C643.915 82.2728 644.46 85.8068 645.551 88.6932C646.665 91.5568 648.29 93.7387 650.426 95.2387C652.585 96.7159 655.233 97.4546 658.369 97.4546C661.506 97.4546 664.142 96.7159 666.278 95.2387C668.438 93.7387 670.063 91.5568 671.153 88.6932C672.267 85.8068 672.824 82.2728 672.824 78.0909Z" fill="#F4900C"/>
<path d="M720.048 43.1818V113H701.094V43.1818H720.048Z" fill="#F4900C"/>
<path d="M789.44 43.1818V113H773.622L748.395 76.3182H747.986V113H729.031V43.1818H745.122L769.94 79.7273H770.486V43.1818H789.44Z" fill="#F4900C"/>
</g>
<defs>
<clipPath id="clip0_21_2785">
<rect width="789.44" height="157" fill="white"/>
</clipPath>
<clipPath id="clip1_21_2785">
<rect width="157" height="157" fill="white"/>
</clipPath>
</defs>
</svg>
