<svg width="638" height="120" viewBox="0 0 638 120" fill="none" xmlns="http://www.w3.org/2000/svg">
<g clip-path="url(#clip0_21_2804)">
<path d="M59.9999 120C91.296 120 116.667 94.6295 116.667 63.3333C116.667 32.0372 91.296 6.66666 59.9999 6.66666C28.7038 6.66666 3.33325 32.0372 3.33325 63.3333C3.33325 94.6295 28.7038 120 59.9999 120Z" fill="#F4900C"/>
<path d="M59.9999 113.333C91.296 113.333 116.667 87.9628 116.667 56.6667C116.667 25.3705 91.296 0 59.9999 0C28.7038 0 3.33325 25.3705 3.33325 56.6667C3.33325 87.9628 28.7038 113.333 59.9999 113.333Z" fill="#FFCC4D"/>
<path d="M59.9999 106.667C85.7732 106.667 106.667 85.7733 106.667 60C106.667 34.2267 85.7732 13.3333 59.9999 13.3333C34.2266 13.3333 13.3333 34.2267 13.3333 60C13.3333 85.7733 34.2266 106.667 59.9999 106.667Z" fill="#FFE8B6"/>
<path d="M59.9999 103.333C85.7732 103.333 106.667 82.44 106.667 56.6667C106.667 30.8934 85.7732 10 59.9999 10C34.2266 10 13.3333 30.8934 13.3333 56.6667C13.3333 82.44 34.2266 103.333 59.9999 103.333Z" fill="#FFAC33"/>
<path d="M31.8101 36.1867C31.8101 34.37 33.5934 33.6433 33.5934 33.6433L59.8534 21.31L86.3634 33.6433C86.3634 33.6433 88.1901 34.05 88.1901 36.2V38.3367H31.8101V36.1867Z" fill="#FFE8B6"/>
<path d="M86.43 42.7867C86.43 40.84 84.7466 39.2633 82.6733 39.2633H37.0966C35.02 39.2633 33.5733 40.84 33.5733 42.7867C33.5733 44.11 34.2533 45.25 35.3366 45.8533V48.0733H42.3833V46.31H49.43V48.0733H56.4766V46.31H63.5233V48.0733H70.57V46.31H77.6166V48.0733H84.6666V45.7633C85.7233 45.1367 86.43 44.04 86.43 42.7867ZM91.7133 80C91.7133 81.46 90.53 82.6433 89.07 82.6433H30.93C29.47 82.6433 28.2866 81.46 28.2866 80C28.2866 78.54 29.47 77.3567 30.93 77.3567H89.0733C90.53 77.3567 91.7133 78.54 91.7133 80Z" fill="#F4900C"/>
<path d="M88.19 40.6667C88.19 41.64 87.4033 42.43 86.4266 42.43H33.57C32.5966 42.43 31.8066 41.64 31.8066 40.6667C31.8066 39.6933 32.5966 38.9033 33.57 38.9033L86.4266 38.9133C87.4033 38.9167 88.19 39.6933 88.19 40.6667ZM40.62 42.7133H79.3833V46.6667H40.62V42.7133Z" fill="#F4900C"/>
<path d="M42.3801 69.43C42.3801 71.3767 41.3267 72.9533 40.0301 72.9533H37.6801C36.3834 72.9533 35.3301 71.3767 35.3301 69.43V42.7167C35.3301 40.77 36.3834 39.1933 37.6801 39.1933H40.0301C41.3267 39.1933 42.3801 40.77 42.3801 42.7167V69.43ZM84.6667 69.43C84.6667 71.3767 83.6167 72.9533 82.3167 72.9533H79.9667C78.6701 72.9533 77.6167 71.3767 77.6167 69.43V42.7167C77.6167 40.77 78.6667 39.1933 79.9667 39.1933H82.3167C83.6134 39.1933 84.6667 40.77 84.6667 42.7167V69.43ZM56.4767 69.43C56.4767 71.3767 55.4234 72.9533 54.1267 72.9533H51.7767C50.4801 72.9533 49.4267 71.3767 49.4267 69.43V42.7167C49.4267 40.77 50.4801 39.1933 51.7767 39.1933H54.1267C55.4234 39.1933 56.4767 40.77 56.4767 42.7167V69.43ZM70.5701 69.43C70.5701 71.3767 69.5167 72.9533 68.2201 72.9533H65.8734C64.5767 72.9533 63.5234 71.3767 63.5234 69.43V42.7167C63.5234 40.77 64.5767 39.1933 65.8734 39.1933H68.2201C69.5167 39.1933 70.5701 40.77 70.5701 42.7167V69.43Z" fill="#FFD983"/>
<path d="M86.4299 71.19C86.4299 73.1367 84.8532 74.7133 82.9066 74.7133H37.0966C35.1499 74.7133 33.5732 73.1367 33.5732 71.19C33.5732 69.2433 35.1499 67.6667 37.0966 67.6667H82.9066C84.8499 67.6667 86.4299 69.2433 86.4299 71.19Z" fill="#FFCC4D"/>
<path d="M89.9533 74.7133C89.9533 76.66 88.3766 78.2367 86.43 78.2367H33.57C31.6233 78.2367 30.0466 76.66 30.0466 74.7133C30.0466 72.7667 31.6233 71.19 33.57 71.19H86.4266C88.3733 71.19 89.9533 72.7667 89.9533 74.7133Z" fill="#FFD983"/>
<path d="M91.7133 77.3567C91.7133 78.8167 90.53 80 89.07 80H30.93C29.47 80 28.2866 78.8167 28.2866 77.3567C28.2866 75.8967 29.47 74.7133 30.93 74.7133H89.0733C90.53 74.7133 91.7133 75.8967 91.7133 77.3567Z" fill="#FFD983"/>
<path d="M86.4299 40.9533C86.4299 39.0067 84.7466 37.43 82.6732 37.43H37.0966C35.0199 37.43 33.5732 39.0067 33.5732 40.9533C33.5732 42.2767 34.2532 43.4167 35.3366 44.02V46.24H42.3832V44.4767H49.4299V46.24H56.4766V44.4767H63.5232V46.24H70.5699V44.4767H77.6166V46.24H84.6666V43.93C85.7232 43.3033 86.4299 42.2067 86.4299 40.9533Z" fill="#FFCC4D"/>
<path d="M31.8101 38.21C31.8101 36.3933 33.5934 35.6667 33.5934 35.6667L59.8534 23.3333L86.3634 35.6667C86.3634 35.6667 88.1901 36.0733 88.1901 38.2233V39.1933H31.8101V38.21Z" fill="#FFD983"/>
<path d="M60 27.81C60 27.81 41.8166 36.38 40.0033 37.1533C38.1866 37.9233 38.7933 39.19 40.0066 39.19H79.9066C81.78 39.19 81.3366 37.76 79.85 36.9867C78.3633 36.2167 60 27.81 60 27.81Z" fill="#FFAC33"/>
<path d="M88.19 39.19C88.19 40.1633 87.4033 40.9533 86.4266 40.9533H33.57C32.5966 40.9533 31.8066 40.1633 31.8066 39.19C31.8066 38.2167 32.5966 37.4267 33.57 37.4267L86.4266 37.4367C87.4033 37.44 88.19 38.2167 88.19 39.19Z" fill="#FFD983"/>
</g>
<path d="M143.5 93V23.1818H173.636C178.818 23.1818 183.352 24.2045 187.239 26.25C191.125 28.2955 194.148 31.1705 196.307 34.875C198.466 38.5795 199.545 42.9091 199.545 47.8636C199.545 52.8636 198.432 57.1932 196.205 60.8523C194 64.5114 190.898 67.3295 186.898 69.3068C182.92 71.2841 178.273 72.2727 172.955 72.2727H154.955V57.5455H169.136C171.364 57.5455 173.261 57.1591 174.83 56.3864C176.42 55.5909 177.636 54.4659 178.477 53.0114C179.341 51.5568 179.773 49.8409 179.773 47.8636C179.773 45.8636 179.341 44.1591 178.477 42.75C177.636 41.3182 176.42 40.2273 174.83 39.4773C173.261 38.7045 171.364 38.3182 169.136 38.3182H162.455V93H143.5Z" fill="#F4900C"/>
<path d="M206.773 93V40.6364H225.045V50.5909H225.591C226.545 46.9091 228.057 44.2159 230.125 42.5114C232.216 40.8068 234.659 39.9545 237.455 39.9545C238.273 39.9545 239.08 40.0227 239.875 40.1591C240.693 40.2727 241.477 40.4432 242.227 40.6705V56.7273C241.295 56.4091 240.148 56.1705 238.784 56.0114C237.42 55.8523 236.25 55.7727 235.273 55.7727C233.432 55.7727 231.773 56.1932 230.295 57.0341C228.841 57.8523 227.693 59.0114 226.852 60.5114C226.011 61.9886 225.591 63.7273 225.591 65.7273V93H206.773Z" fill="#F4900C"/>
<path d="M270.625 93.9545C264.943 93.9545 260.08 92.8295 256.034 90.5795C251.989 88.3068 248.886 85.1477 246.727 81.1023C244.568 77.0341 243.489 72.3182 243.489 66.9545C243.489 61.5909 244.568 56.8864 246.727 52.8409C248.886 48.7727 251.989 45.6136 256.034 43.3636C260.08 41.0909 264.943 39.9545 270.625 39.9545C276.307 39.9545 281.17 41.0909 285.216 43.3636C289.261 45.6136 292.364 48.7727 294.523 52.8409C296.682 56.8864 297.761 61.5909 297.761 66.9545C297.761 72.3182 296.682 77.0341 294.523 81.1023C292.364 85.1477 289.261 88.3068 285.216 90.5795C281.17 92.8295 276.307 93.9545 270.625 93.9545ZM270.761 80.0455C272.352 80.0455 273.727 79.5114 274.886 78.4432C276.045 77.375 276.943 75.8523 277.58 73.875C278.216 71.8977 278.534 69.5455 278.534 66.8182C278.534 64.0682 278.216 61.7159 277.58 59.7614C276.943 57.7841 276.045 56.2614 274.886 55.1932C273.727 54.125 272.352 53.5909 270.761 53.5909C269.08 53.5909 267.636 54.125 266.432 55.1932C265.227 56.2614 264.307 57.7841 263.67 59.7614C263.034 61.7159 262.716 64.0682 262.716 66.8182C262.716 69.5455 263.034 71.8977 263.67 73.875C264.307 75.8523 265.227 77.375 266.432 78.4432C267.636 79.5114 269.08 80.0455 270.761 80.0455Z" fill="#F4900C"/>
<path d="M336.625 40.6364V54.2727H302.125V40.6364H336.625ZM308.807 28.0909H327.625V76.1591C327.625 76.8864 327.75 77.5 328 78C328.25 78.4773 328.636 78.8409 329.159 79.0909C329.682 79.3182 330.352 79.4318 331.17 79.4318C331.739 79.4318 332.398 79.3636 333.148 79.2273C333.92 79.0909 334.489 78.9773 334.852 78.8864L337.58 92.1136C336.739 92.3636 335.534 92.6704 333.966 93.0341C332.42 93.3977 330.58 93.6364 328.443 93.75C324.125 93.9773 320.5 93.5341 317.568 92.4205C314.636 91.2841 312.432 89.5 310.955 87.0682C309.477 84.6364 308.761 81.5909 308.807 77.9318V28.0909Z" fill="#F4900C"/>
<path d="M368.969 93.9545C363.287 93.9545 358.423 92.8295 354.378 90.5795C350.332 88.3068 347.23 85.1477 345.071 81.1023C342.912 77.0341 341.832 72.3182 341.832 66.9545C341.832 61.5909 342.912 56.8864 345.071 52.8409C347.23 48.7727 350.332 45.6136 354.378 43.3636C358.423 41.0909 363.287 39.9545 368.969 39.9545C374.651 39.9545 379.514 41.0909 383.56 43.3636C387.605 45.6136 390.707 48.7727 392.866 52.8409C395.026 56.8864 396.105 61.5909 396.105 66.9545C396.105 72.3182 395.026 77.0341 392.866 81.1023C390.707 85.1477 387.605 88.3068 383.56 90.5795C379.514 92.8295 374.651 93.9545 368.969 93.9545ZM369.105 80.0455C370.696 80.0455 372.071 79.5114 373.23 78.4432C374.389 77.375 375.287 75.8523 375.923 73.875C376.56 71.8977 376.878 69.5455 376.878 66.8182C376.878 64.0682 376.56 61.7159 375.923 59.7614C375.287 57.7841 374.389 56.2614 373.23 55.1932C372.071 54.125 370.696 53.5909 369.105 53.5909C367.423 53.5909 365.98 54.125 364.776 55.1932C363.571 56.2614 362.651 57.7841 362.014 59.7614C361.378 61.7159 361.06 64.0682 361.06 66.8182C361.06 69.5455 361.378 71.8977 362.014 73.875C362.651 75.8523 363.571 77.375 364.776 78.4432C365.98 79.5114 367.423 80.0455 369.105 80.0455Z" fill="#F4900C"/>
<path d="M487.776 49.3636H468.548C468.412 47.7727 468.048 46.3295 467.457 45.0341C466.889 43.7386 466.094 42.625 465.071 41.6932C464.071 40.7386 462.855 40.0114 461.423 39.5114C459.991 38.9886 458.366 38.7273 456.548 38.7273C453.366 38.7273 450.673 39.5 448.469 41.0455C446.287 42.5909 444.628 44.8068 443.491 47.6932C442.378 50.5795 441.821 54.0455 441.821 58.0909C441.821 62.3636 442.389 65.9432 443.526 68.8295C444.685 71.6932 446.355 73.8523 448.537 75.3068C450.719 76.7386 453.344 77.4545 456.412 77.4545C458.162 77.4545 459.73 77.2386 461.116 76.8068C462.503 76.3523 463.707 75.7045 464.73 74.8636C465.753 74.0227 466.582 73.0114 467.219 71.8295C467.878 70.625 468.321 69.2727 468.548 67.7727L487.776 67.9091C487.548 70.8636 486.719 73.875 485.287 76.9432C483.855 79.9886 481.821 82.8068 479.185 85.3977C476.571 87.9659 473.332 90.0341 469.469 91.6023C465.605 93.1705 461.116 93.9545 456.003 93.9545C449.594 93.9545 443.844 92.5795 438.753 89.8295C433.685 87.0795 429.673 83.0341 426.719 77.6932C423.787 72.3523 422.321 65.8182 422.321 58.0909C422.321 50.3182 423.821 43.7727 426.821 38.4545C429.821 33.1136 433.866 29.0795 438.957 26.3523C444.048 23.6023 449.73 22.2273 456.003 22.2273C460.412 22.2273 464.469 22.8295 468.173 24.0341C471.878 25.2386 475.128 27 477.923 29.3182C480.719 31.6136 482.969 34.4432 484.673 37.8068C486.378 41.1705 487.412 45.0227 487.776 49.3636Z" fill="#F4900C"/>
<path d="M521.875 93.9545C516.193 93.9545 511.33 92.8295 507.284 90.5795C503.239 88.3068 500.136 85.1477 497.977 81.1023C495.818 77.0341 494.739 72.3182 494.739 66.9545C494.739 61.5909 495.818 56.8864 497.977 52.8409C500.136 48.7727 503.239 45.6136 507.284 43.3636C511.33 41.0909 516.193 39.9545 521.875 39.9545C527.557 39.9545 532.42 41.0909 536.466 43.3636C540.511 45.6136 543.614 48.7727 545.773 52.8409C547.932 56.8864 549.011 61.5909 549.011 66.9545C549.011 72.3182 547.932 77.0341 545.773 81.1023C543.614 85.1477 540.511 88.3068 536.466 90.5795C532.42 92.8295 527.557 93.9545 521.875 93.9545ZM522.011 80.0455C523.602 80.0455 524.977 79.5114 526.136 78.4432C527.295 77.375 528.193 75.8523 528.83 73.875C529.466 71.8977 529.784 69.5455 529.784 66.8182C529.784 64.0682 529.466 61.7159 528.83 59.7614C528.193 57.7841 527.295 56.2614 526.136 55.1932C524.977 54.125 523.602 53.5909 522.011 53.5909C520.33 53.5909 518.886 54.125 517.682 55.1932C516.477 56.2614 515.557 57.7841 514.92 59.7614C514.284 61.7159 513.966 64.0682 513.966 66.8182C513.966 69.5455 514.284 71.8977 514.92 73.875C515.557 75.8523 516.477 77.375 517.682 78.4432C518.886 79.5114 520.33 80.0455 522.011 80.0455Z" fill="#F4900C"/>
<path d="M556.648 93V40.6364H575.466V93H556.648ZM566.057 35.1818C563.511 35.1818 561.33 34.3409 559.511 32.6591C557.693 30.9773 556.784 28.9545 556.784 26.5909C556.784 24.2273 557.693 22.2045 559.511 20.5227C561.33 18.8409 563.511 18 566.057 18C568.625 18 570.807 18.8409 572.602 20.5227C574.42 22.2045 575.33 24.2273 575.33 26.5909C575.33 28.9545 574.42 30.9773 572.602 32.6591C570.807 34.3409 568.625 35.1818 566.057 35.1818Z" fill="#F4900C"/>
<path d="M603.872 63.5455V93H585.054V40.6364H602.918V50.5909H603.463C604.599 47.2727 606.599 44.6705 609.463 42.7841C612.349 40.8977 615.713 39.9545 619.554 39.9545C623.259 39.9545 626.474 40.8068 629.202 42.5114C631.952 44.1932 634.077 46.5114 635.577 49.4659C637.099 52.4205 637.849 55.7955 637.827 59.5909V93H619.009V63.5455C619.031 60.9545 618.372 58.9205 617.031 57.4432C615.713 55.9659 613.872 55.2273 611.509 55.2273C609.963 55.2273 608.611 55.5682 607.452 56.25C606.315 56.9091 605.44 57.8636 604.827 59.1136C604.213 60.3409 603.895 61.8182 603.872 63.5455Z" fill="#F4900C"/>
<defs>
<clipPath id="clip0_21_2804">
<rect width="120" height="120" fill="white"/>
</clipPath>
</defs>
</svg>
