<svg width="517" height="163" viewBox="0 0 517 163" fill="none" xmlns="http://www.w3.org/2000/svg">
<g clip-path="url(#clip0_21_2749)">
<path d="M78.5 161.773C119.446 161.773 152.639 128.58 152.639 87.6339C152.639 46.6881 119.446 13.495 78.5 13.495C37.5542 13.495 4.36108 46.6881 4.36108 87.6339C4.36108 128.58 37.5542 161.773 78.5 161.773Z" fill="#F4900C"/>
<path d="M78.5 153.051C119.446 153.051 152.639 119.857 152.639 78.9116C152.639 37.9658 119.446 4.77274 78.5 4.77274C37.5542 4.77274 4.36108 37.9658 4.36108 78.9116C4.36108 119.857 37.5542 153.051 78.5 153.051Z" fill="#FFCC4D"/>
<path d="M78.4999 144.328C112.22 144.328 139.555 116.993 139.555 83.2727C139.555 49.5527 112.22 22.2172 78.4999 22.2172C44.7798 22.2172 17.4443 49.5527 17.4443 83.2727C17.4443 116.993 44.7798 144.328 78.4999 144.328Z" fill="#FFE8B6"/>
<path d="M78.4999 139.967C112.22 139.967 139.555 112.632 139.555 78.9116C139.555 45.1916 112.22 17.8561 78.4999 17.8561C44.7798 17.8561 17.4443 45.1916 17.4443 78.9116C17.4443 112.632 44.7798 139.967 78.4999 139.967Z" fill="#FFAC33"/>
<path d="M41.6182 52.117C41.6182 49.7401 43.9514 48.7894 43.9514 48.7894L78.3082 32.6533L112.992 48.7894C112.992 48.7894 115.382 49.3215 115.382 52.1344V54.9299H41.6182V52.117Z" fill="#FFE8B6"/>
<path d="M113.079 60.752C113.079 58.2051 110.877 56.1423 108.164 56.1423H48.5347C45.8177 56.1423 43.925 58.2051 43.925 60.752C43.925 62.4833 44.8147 63.9748 46.232 64.7642V67.6687H55.4514V65.3617H64.6708V67.6687H73.8902V65.3617H83.1096V67.6687H92.329V65.3617H101.548V67.6687H110.772V64.6464C112.155 63.8265 113.079 62.3917 113.079 60.752ZM119.992 109.439C119.992 111.35 118.443 112.898 116.533 112.898H40.4667C38.5565 112.898 37.0083 111.35 37.0083 109.439C37.0083 107.529 38.5565 105.981 40.4667 105.981H116.538C118.443 105.981 119.992 107.529 119.992 109.439V109.439Z" fill="#F4900C"/>
<path d="M115.382 57.9783C115.382 59.2517 114.353 60.2853 113.075 60.2853H43.9208C42.6474 60.2853 41.6138 59.2517 41.6138 57.9783C41.6138 56.7048 42.6474 55.6713 43.9208 55.6713L113.075 55.6843C114.353 55.6887 115.382 56.7048 115.382 57.9783V57.9783ZM53.1445 60.656H103.86V65.8283H53.1445V60.656Z" fill="#F4900C"/>
<path d="M55.4471 95.6103C55.4471 98.1572 54.069 100.22 52.3726 100.22H49.298C47.6015 100.22 46.2234 98.1572 46.2234 95.6103V60.6604C46.2234 58.1135 47.6015 56.0507 49.298 56.0507H52.3726C54.069 56.0507 55.4471 58.1135 55.4471 60.6604V95.6103ZM110.772 95.6103C110.772 98.1572 109.398 100.22 107.698 100.22H104.623C102.927 100.22 101.548 98.1572 101.548 95.6103V60.6604C101.548 58.1135 102.922 56.0507 104.623 56.0507H107.698C109.394 56.0507 110.772 58.1135 110.772 60.6604V95.6103ZM73.8903 95.6103C73.8903 98.1572 72.5122 100.22 70.8157 100.22H67.7411C66.0446 100.22 64.6665 98.1572 64.6665 95.6103V60.6604C64.6665 58.1135 66.0446 56.0507 67.7411 56.0507H70.8157C72.5122 56.0507 73.8903 58.1135 73.8903 60.6604V95.6103ZM92.329 95.6103C92.329 98.1572 90.9509 100.22 89.2545 100.22H86.1842C84.4878 100.22 83.1097 98.1572 83.1097 95.6103V60.6604C83.1097 58.1135 84.4878 56.0507 86.1842 56.0507H89.2545C90.9509 56.0507 92.329 58.1135 92.329 60.6604V95.6103Z" fill="#FFD983"/>
<path d="M113.079 97.913C113.079 100.46 111.016 102.523 108.469 102.523H48.5347C45.9879 102.523 43.925 100.46 43.925 97.913C43.925 95.3661 45.9879 93.3033 48.5347 93.3033H108.469C111.012 93.3033 113.079 95.3661 113.079 97.913Z" fill="#FFCC4D"/>
<path d="M117.689 102.523C117.689 105.07 115.626 107.132 113.079 107.132H43.9207C41.3738 107.132 39.311 105.07 39.311 102.523C39.311 99.9758 41.3738 97.913 43.9207 97.913H113.075C115.622 97.913 117.689 99.9758 117.689 102.523V102.523Z" fill="#FFD983"/>
<path d="M119.992 105.981C119.992 107.891 118.443 109.439 116.533 109.439H40.4667C38.5565 109.439 37.0083 107.891 37.0083 105.981C37.0083 104.071 38.5565 102.523 40.4667 102.523H116.538C118.443 102.523 119.992 104.071 119.992 105.981V105.981Z" fill="#FFD983"/>
<path d="M113.079 58.3533C113.079 55.8065 110.877 53.7437 108.164 53.7437H48.5347C45.8178 53.7437 43.925 55.8065 43.925 58.3533C43.925 60.0847 44.8147 61.5762 46.2321 62.3656V65.2701H55.4515V62.963H64.6709V65.2701H73.8902V62.963H83.1096V65.2701H92.329V62.963H101.548V65.2701H110.772V62.2478C112.155 61.4279 113.079 59.9931 113.079 58.3533Z" fill="#FFCC4D"/>
<path d="M41.6182 54.7641C41.6182 52.3873 43.9514 51.4366 43.9514 51.4366L78.3082 35.3005L112.992 51.4366C112.992 51.4366 115.382 51.9687 115.382 54.7816V56.0507H41.6182V54.7641Z" fill="#FFD983"/>
<path d="M78.5001 41.1575C78.5001 41.1575 54.7103 52.3699 52.3378 53.3817C49.961 54.3891 50.7547 56.0463 52.3422 56.0463H104.545C106.996 56.0463 106.416 54.1754 104.471 53.1636C102.525 52.1562 78.5001 41.1575 78.5001 41.1575Z" fill="#FFAC33"/>
<path d="M115.382 56.0463C115.382 57.3198 114.353 58.3533 113.075 58.3533H43.9208C42.6474 58.3533 41.6138 57.3198 41.6138 56.0463C41.6138 54.7729 42.6474 53.7393 43.9208 53.7393L113.075 53.7524C114.353 53.7567 115.382 54.7729 115.382 56.0463V56.0463Z" fill="#FFD983"/>
</g>
<path d="M185.5 70.7727V0.954546H215.636C220.818 0.954546 225.352 1.97727 229.239 4.02273C233.125 6.06818 236.148 8.94318 238.307 12.6477C240.466 16.3523 241.545 20.6818 241.545 25.6364C241.545 30.6364 240.432 34.9659 238.205 38.625C236 42.2841 232.898 45.1023 228.898 47.0795C224.92 49.0568 220.273 50.0455 214.955 50.0455H196.955V35.3182H211.136C213.364 35.3182 215.261 34.9318 216.83 34.1591C218.42 33.3636 219.636 32.2386 220.477 30.7841C221.341 29.3295 221.773 27.6136 221.773 25.6364C221.773 23.6364 221.341 21.9318 220.477 20.5227C219.636 19.0909 218.42 18 216.83 17.25C215.261 16.4773 213.364 16.0909 211.136 16.0909H204.455V70.7727H185.5Z" fill="#F4900C"/>
<path d="M248.5 70.7727V0.954546H278.636C283.818 0.954546 288.352 1.89773 292.239 3.78409C296.125 5.67046 299.148 8.38637 301.307 11.9318C303.466 15.4773 304.545 19.7273 304.545 24.6818C304.545 29.6818 303.432 33.8977 301.205 37.3295C299 40.7614 295.898 43.3523 291.898 45.1023C287.92 46.8523 283.273 47.7273 277.955 47.7273H259.955V33H274.136C276.364 33 278.261 32.7273 279.83 32.1818C281.42 31.6136 282.636 30.7159 283.477 29.4886C284.341 28.2614 284.773 26.6591 284.773 24.6818C284.773 22.6818 284.341 21.0568 283.477 19.8068C282.636 18.5341 281.42 17.6023 279.83 17.0114C278.261 16.3977 276.364 16.0909 274.136 16.0909H267.455V70.7727H248.5ZM289.409 38.7273L306.864 70.7727H286.273L269.227 38.7273H289.409Z" fill="#F4900C"/>
<path d="M380.261 35.8636C380.261 43.6364 378.75 50.1932 375.727 55.5341C372.705 60.8523 368.625 64.8864 363.489 67.6364C358.352 70.3636 352.625 71.7273 346.307 71.7273C339.943 71.7273 334.193 70.3523 329.057 67.6023C323.943 64.8295 319.875 60.7841 316.852 55.4659C313.852 50.125 312.352 43.5909 312.352 35.8636C312.352 28.0909 313.852 21.5455 316.852 16.2273C319.875 10.8864 323.943 6.85227 329.057 4.125C334.193 1.375 339.943 0 346.307 0C352.625 0 358.352 1.375 363.489 4.125C368.625 6.85227 372.705 10.8864 375.727 16.2273C378.75 21.5455 380.261 28.0909 380.261 35.8636ZM360.761 35.8636C360.761 31.6818 360.205 28.1591 359.091 25.2955C358 22.4091 356.375 20.2273 354.216 18.75C352.08 17.25 349.443 16.5 346.307 16.5C343.17 16.5 340.523 17.25 338.364 18.75C336.227 20.2273 334.602 22.4091 333.489 25.2955C332.398 28.1591 331.852 31.6818 331.852 35.8636C331.852 40.0455 332.398 43.5795 333.489 46.4659C334.602 49.3295 336.227 51.5114 338.364 53.0114C340.523 54.4886 343.17 55.2273 346.307 55.2273C349.443 55.2273 352.08 54.4886 354.216 53.0114C356.375 51.5114 358 49.3295 359.091 46.4659C360.205 43.5795 360.761 40.0455 360.761 35.8636Z" fill="#F4900C"/>
<path d="M383.841 16.2273V0.954546H444.523V16.2273H423.523V70.7727H404.841V16.2273H383.841Z" fill="#F4900C"/>
<path d="M516.011 35.8636C516.011 43.6364 514.5 50.1932 511.477 55.5341C508.455 60.8523 504.375 64.8864 499.239 67.6364C494.102 70.3636 488.375 71.7273 482.057 71.7273C475.693 71.7273 469.943 70.3523 464.807 67.6023C459.693 64.8295 455.625 60.7841 452.602 55.4659C449.602 50.125 448.102 43.5909 448.102 35.8636C448.102 28.0909 449.602 21.5455 452.602 16.2273C455.625 10.8864 459.693 6.85227 464.807 4.125C469.943 1.375 475.693 0 482.057 0C488.375 0 494.102 1.375 499.239 4.125C504.375 6.85227 508.455 10.8864 511.477 16.2273C514.5 21.5455 516.011 28.0909 516.011 35.8636ZM496.511 35.8636C496.511 31.6818 495.955 28.1591 494.841 25.2955C493.75 22.4091 492.125 20.2273 489.966 18.75C487.83 17.25 485.193 16.5 482.057 16.5C478.92 16.5 476.273 17.25 474.114 18.75C471.977 20.2273 470.352 22.4091 469.239 25.2955C468.148 28.1591 467.602 31.6818 467.602 35.8636C467.602 40.0455 468.148 43.5795 469.239 46.4659C470.352 49.3295 471.977 51.5114 474.114 53.0114C476.273 54.4886 478.92 55.2273 482.057 55.2273C485.193 55.2273 487.83 54.4886 489.966 53.0114C492.125 51.5114 493.75 49.3295 494.841 46.4659C495.955 43.5795 496.511 40.0455 496.511 35.8636Z" fill="#F4900C"/>
<path d="M250.682 118.136H231.455C231.318 116.545 230.955 115.102 230.364 113.807C229.795 112.511 229 111.398 227.977 110.466C226.977 109.511 225.761 108.784 224.33 108.284C222.898 107.761 221.273 107.5 219.455 107.5C216.273 107.5 213.58 108.273 211.375 109.818C209.193 111.364 207.534 113.58 206.398 116.466C205.284 119.352 204.727 122.818 204.727 126.864C204.727 131.136 205.295 134.716 206.432 137.602C207.591 140.466 209.261 142.625 211.443 144.08C213.625 145.511 216.25 146.227 219.318 146.227C221.068 146.227 222.636 146.011 224.023 145.58C225.409 145.125 226.614 144.477 227.636 143.636C228.659 142.795 229.489 141.784 230.125 140.602C230.784 139.398 231.227 138.045 231.455 136.545L250.682 136.682C250.455 139.636 249.625 142.648 248.193 145.716C246.761 148.761 244.727 151.58 242.091 154.17C239.477 156.739 236.239 158.807 232.375 160.375C228.511 161.943 224.023 162.727 218.909 162.727C212.5 162.727 206.75 161.352 201.659 158.602C196.591 155.852 192.58 151.807 189.625 146.466C186.693 141.125 185.227 134.591 185.227 126.864C185.227 119.091 186.727 112.545 189.727 107.227C192.727 101.886 196.773 97.8523 201.864 95.125C206.955 92.375 212.636 91 218.909 91C223.318 91 227.375 91.6023 231.08 92.8068C234.784 94.0114 238.034 95.7727 240.83 98.0909C243.625 100.386 245.875 103.216 247.58 106.58C249.284 109.943 250.318 113.795 250.682 118.136Z" fill="#F4900C"/>
<path d="M326.918 126.864C326.918 134.636 325.406 141.193 322.384 146.534C319.361 151.852 315.281 155.886 310.145 158.636C305.009 161.364 299.281 162.727 292.963 162.727C286.599 162.727 280.849 161.352 275.713 158.602C270.599 155.83 266.531 151.784 263.509 146.466C260.509 141.125 259.009 134.591 259.009 126.864C259.009 119.091 260.509 112.545 263.509 107.227C266.531 101.886 270.599 97.8523 275.713 95.125C280.849 92.375 286.599 91 292.963 91C299.281 91 305.009 92.375 310.145 95.125C315.281 97.8523 319.361 101.886 322.384 107.227C325.406 112.545 326.918 119.091 326.918 126.864ZM307.418 126.864C307.418 122.682 306.861 119.159 305.747 116.295C304.656 113.409 303.031 111.227 300.872 109.75C298.736 108.25 296.099 107.5 292.963 107.5C289.827 107.5 287.179 108.25 285.02 109.75C282.884 111.227 281.259 113.409 280.145 116.295C279.054 119.159 278.509 122.682 278.509 126.864C278.509 131.045 279.054 134.58 280.145 137.466C281.259 140.33 282.884 142.511 285.02 144.011C287.179 145.489 289.827 146.227 292.963 146.227C296.099 146.227 298.736 145.489 300.872 144.011C303.031 142.511 304.656 140.33 305.747 137.466C306.861 134.58 307.418 131.045 307.418 126.864Z" fill="#F4900C"/>
<path d="M354.642 91.9545V161.773H335.688V91.9545H354.642Z" fill="#F4900C"/>
<path d="M424.034 91.9545V161.773H408.216L382.989 125.091H382.58V161.773H363.625V91.9545H379.716L404.534 128.5H405.08V91.9545H424.034Z" fill="#F4900C"/>
<defs>
<clipPath id="clip0_21_2749">
<rect width="157" height="157" fill="white" transform="translate(0 4.77274)"/>
</clipPath>
</defs>
</svg>
