<svg width="637" height="124" viewBox="0 0 637 124" fill="none" xmlns="http://www.w3.org/2000/svg">
<path fill-rule="evenodd" clip-rule="evenodd" d="M59.9222 113.186C91.1778 113.186 116.515 87.8487 116.515 56.5932C116.515 25.3376 91.1778 0 59.9222 0C28.6667 0 3.32907 25.3376 3.32907 56.5932C3.32907 87.8487 28.6667 113.186 59.9222 113.186ZM59.9224 106.528C85.6622 106.528 106.529 85.662 106.529 59.9221C106.529 34.1822 85.6622 13.316 59.9224 13.316C34.1825 13.316 13.3162 34.1822 13.3162 59.9221C13.3162 85.662 34.1825 106.528 59.9224 106.528ZM59.9221 116.737C91.8328 116.737 117.918 91.6086 119.742 59.9222C119.81 61.0971 119.844 62.2811 119.844 63.4731C119.844 96.8124 93.0161 123.839 59.9221 123.839C26.828 123.839 0 96.8124 0 63.4731C0 62.2811 0.0342967 61.0971 0.10195 59.9222C1.92646 91.6086 28.0113 116.737 59.9221 116.737ZM33.5501 37.2849C33.5501 37.2849 31.769 38.0106 31.769 39.825V41.8455V41.9722V42.7157C31.7668 42.7517 31.7657 42.7879 31.7657 42.8244C31.7657 43.7965 32.5547 44.5855 33.5268 44.5855H35.599C35.3988 45.1033 35.2842 45.7048 35.2842 46.3464V73.0251C35.2842 73.6655 35.3983 74.2657 35.5977 74.7828H33.5267C31.5825 74.7828 30.0079 76.3574 30.0079 78.3015C30.0079 78.3518 30.0089 78.4017 30.011 78.4515C28.9851 78.8135 28.2501 79.7916 28.2501 80.9416C28.2501 82.3997 29.4319 83.5815 30.89 83.5815H88.9546C90.4127 83.5815 91.5945 82.3997 91.5945 80.9416C91.5945 79.7911 90.8588 78.8127 89.8338 78.451C89.8358 78.4014 89.8369 78.3516 89.8369 78.3015C89.8369 76.3574 88.2589 74.7828 86.3148 74.7828H84.2442C84.4432 74.2657 84.5569 73.6655 84.5569 73.0251V46.3464C84.5569 45.7048 84.4423 45.1033 84.2422 44.5855H86.3149C87.2903 44.5855 88.076 43.7965 88.076 42.8244L88.0759 42.8161V41.9722V41.8588V39.8383C88.0759 37.6911 86.2516 37.2849 86.2516 37.2849L59.776 24.9676L33.5501 37.2849ZM77.8301 44.5855H70.1638C70.3639 45.1033 70.4785 45.7048 70.4785 46.3464V73.0251C70.4785 73.6655 70.3644 74.2657 70.1651 74.7828H77.8295C77.6302 74.2657 77.5161 73.6655 77.5161 73.0251V46.3464C77.5161 45.7048 77.6303 45.1033 77.8301 44.5855ZM56.0888 44.5855C56.2889 45.1033 56.4035 45.7048 56.4035 46.3464V73.0251C56.4035 73.6655 56.2894 74.2657 56.09 74.7828H63.7544C63.5551 74.2657 63.441 73.6655 63.441 73.0251V46.3464C63.441 45.7048 63.5556 45.1033 63.7557 44.5855H56.0888ZM49.6773 44.5855H42.0104C42.2105 45.1033 42.3251 45.7048 42.3251 46.3464V73.0251C42.3251 73.6655 42.211 74.2657 42.0117 74.7828H49.6761C49.4767 74.2657 49.3626 73.6655 49.3626 73.0251V46.3464C49.3626 45.7048 49.4772 45.1033 49.6773 44.5855ZM565.323 35.1362C562.78 35.1362 560.601 34.2964 558.786 32.6167C556.97 30.9371 556.062 28.917 556.062 26.5564C556.062 24.1959 556.97 22.1757 558.786 20.4961C560.601 18.8165 562.78 17.9767 565.323 17.9767C567.887 17.9767 570.066 18.8165 571.86 20.4961C573.675 22.1757 574.583 24.1959 574.583 26.5564C574.583 28.917 573.675 30.9371 571.86 32.6167C570.066 34.2964 567.887 35.1362 565.323 35.1362ZM487.143 49.2996H467.941C467.804 47.7108 467.441 46.2695 466.851 44.9757C466.284 43.6819 465.489 42.5697 464.468 41.6391C463.469 40.6858 462.255 39.9595 460.825 39.4601C459.395 38.9381 457.772 38.677 455.956 38.677C452.778 38.677 450.089 39.4488 447.887 40.9922C445.708 42.5357 444.051 44.7487 442.916 47.6313C441.804 50.514 441.248 53.9754 441.248 58.0156C441.248 62.2828 441.815 65.8577 442.95 68.7403C444.108 71.6002 445.776 73.7565 447.955 75.2092C450.134 76.6391 452.756 77.3541 455.82 77.3541C457.568 77.3541 459.134 77.1385 460.518 76.7072C461.903 76.2533 463.106 75.6064 464.127 74.7666C465.149 73.9267 465.977 72.9167 466.613 71.7364C467.271 70.5334 467.714 69.1829 467.941 67.6848L487.143 67.821C486.916 70.7717 486.087 73.7792 484.657 76.8434C483.228 79.8849 481.196 82.6994 478.563 85.287C475.953 87.8518 472.718 89.9173 468.86 91.4835C465.001 93.0496 460.518 93.8327 455.411 93.8327C449.011 93.8327 443.268 92.4595 438.184 89.7131C433.122 86.9666 429.116 82.9264 426.165 77.5924C423.237 72.2584 421.773 65.7328 421.773 58.0156C421.773 50.2529 423.271 43.716 426.267 38.4047C429.263 33.0707 433.304 29.0418 438.388 26.3181C443.472 23.5717 449.147 22.1984 455.411 22.1984C459.815 22.1984 463.866 22.7999 467.566 24.0029C471.266 25.2059 474.512 26.965 477.303 29.2802C480.095 31.5726 482.342 34.3985 484.045 37.7578C485.747 41.1171 486.78 44.9643 487.143 49.2996ZM143.314 92.8794V23.1518H173.411C178.586 23.1518 183.114 24.1732 186.996 26.216C190.877 28.2588 193.896 31.13 196.052 34.8298C198.208 38.5295 199.287 42.8534 199.287 47.8016C199.287 52.7951 198.174 57.119 195.95 60.7734C193.748 64.4277 190.65 67.2422 186.655 69.2169C182.683 71.1916 178.041 72.179 172.73 72.179H162.244V92.8794H143.314ZM168.917 57.4708H162.244V38.2685H168.917C171.141 38.2685 173.037 38.6544 174.603 39.4261C176.192 40.1751 177.406 41.2646 178.246 42.6946C179.108 44.1018 179.539 45.8042 179.539 47.8016C179.539 49.7763 179.108 51.49 178.246 52.9426C177.406 54.3953 176.192 55.5188 174.603 56.3132C173.037 57.085 171.141 57.4708 168.917 57.4708ZM206.504 92.8794V40.5837H224.753V50.5253H225.298C226.252 46.8483 227.761 44.1586 229.826 42.4562C231.915 40.7539 234.355 39.9027 237.146 39.9027C237.964 39.9027 238.769 39.9708 239.564 40.107C240.381 40.2205 241.164 40.3907 241.913 40.6177V56.6537C240.982 56.3359 239.836 56.0976 238.474 55.9387C237.112 55.7798 235.943 55.7004 234.967 55.7004C233.129 55.7004 231.472 56.1203 229.997 56.9601C228.544 57.7772 227.398 58.9348 226.558 60.4329C225.718 61.9082 225.298 63.6446 225.298 65.642V92.8794H206.504ZM246.407 80.9971C248.563 85.0373 251.662 88.1923 255.702 90.4621C259.742 92.7092 264.599 93.8327 270.274 93.8327C275.948 93.8327 280.806 92.7092 284.846 90.4621C288.886 88.1923 291.984 85.0373 294.141 80.9971C296.297 76.9342 297.375 72.2244 297.375 66.8677C297.375 61.511 296.297 56.8126 294.141 52.7724C291.984 48.7095 288.886 45.5545 284.846 43.3074C280.806 41.0376 275.948 39.9027 270.274 39.9027C264.599 39.9027 259.742 41.0376 255.702 43.3074C251.662 45.5545 248.563 48.7095 246.407 52.7724C244.251 56.8126 243.173 61.511 243.173 66.8677C243.173 72.2244 244.251 76.9342 246.407 80.9971ZM274.53 78.3415C273.372 79.4083 271.999 79.9417 270.41 79.9417C268.73 79.9417 267.289 79.4083 266.086 78.3415C264.883 77.2747 263.964 75.7539 263.328 73.7792C262.693 71.8045 262.375 69.4553 262.375 66.7315C262.375 63.9851 262.693 61.6359 263.328 59.6839C263.964 57.7092 264.883 56.1884 266.086 55.1216C267.289 54.0548 268.73 53.5214 270.41 53.5214C271.999 53.5214 273.372 54.0548 274.53 55.1216C275.687 56.1884 276.584 57.7092 277.219 59.6839C277.855 61.6359 278.173 63.9851 278.173 66.7315C278.173 69.4553 277.855 71.8045 277.219 73.7792C276.584 75.7539 275.687 77.2747 274.53 78.3415ZM336.188 40.5837V54.2023H327.2V76.0603C327.2 76.7867 327.325 77.3995 327.575 77.8988C327.824 78.3755 328.21 78.7387 328.732 78.9883C329.254 79.2153 329.924 79.3288 330.741 79.3288C331.308 79.3288 331.967 79.2607 332.716 79.1245C333.487 78.9883 334.055 78.8748 334.418 78.7841L337.142 91.9942C336.302 92.2439 335.099 92.5503 333.533 92.9134C331.989 93.2766 330.151 93.5149 328.017 93.6284C323.705 93.8554 320.084 93.4128 317.156 92.3006C314.228 91.1657 312.027 89.3839 310.551 86.9553C309.076 84.5266 308.361 81.4851 308.406 77.8307V54.2023H301.733V40.5837H308.406V28.0545H327.2V40.5837H336.188ZM555.926 92.8794V40.5837H574.719V92.8794H555.926ZM344.623 80.9971C346.78 85.0373 349.878 88.1923 353.918 90.4621C357.958 92.7092 362.816 93.8327 368.49 93.8327C374.165 93.8327 379.022 92.7092 383.062 90.4621C387.102 88.1923 390.201 85.0373 392.357 80.9971C394.513 76.9342 395.591 72.2244 395.591 66.8677C395.591 61.511 394.513 56.8126 392.357 52.7724C390.201 48.7095 387.102 45.5545 383.062 43.3074C379.022 41.0376 374.165 39.9027 368.49 39.9027C362.816 39.9027 357.958 41.0376 353.918 43.3074C349.878 45.5545 346.78 48.7095 344.623 52.7724C342.467 56.8126 341.389 61.511 341.389 66.8677C341.389 72.2244 342.467 76.9342 344.623 80.9971ZM372.746 78.3415C371.588 79.4083 370.215 79.9417 368.626 79.9417C366.947 79.9417 365.505 79.4083 364.302 78.3415C363.099 77.2747 362.18 75.7539 361.545 73.7792C360.909 71.8045 360.591 69.4553 360.591 66.7315C360.591 63.9851 360.909 61.6359 361.545 59.6839C362.18 57.7092 363.099 56.1884 364.302 55.1216C365.505 54.0548 366.947 53.5214 368.626 53.5214C370.215 53.5214 371.588 54.0548 372.746 55.1216C373.904 56.1884 374.8 57.7092 375.436 59.6839C376.071 61.6359 376.389 63.9851 376.389 66.7315C376.389 69.4553 376.071 71.8045 375.436 73.7792C374.8 75.7539 373.904 77.2747 372.746 78.3415ZM497.331 80.9971C499.488 85.0373 502.586 88.1923 506.626 90.4621C510.666 92.7092 515.524 93.8327 521.198 93.8327C526.873 93.8327 531.73 92.7092 535.77 90.4621C539.81 88.1923 542.909 85.0373 545.065 80.9971C547.221 76.9342 548.299 72.2244 548.299 66.8677C548.299 61.511 547.221 56.8126 545.065 52.7724C542.909 48.7095 539.81 45.5545 535.77 43.3074C531.73 41.0376 526.873 39.9027 521.198 39.9027C515.524 39.9027 510.666 41.0376 506.626 43.3074C502.586 45.5545 499.488 48.7095 497.331 52.7724C495.175 56.8126 494.097 61.511 494.097 66.8677C494.097 72.2244 495.175 76.9342 497.331 80.9971ZM525.454 78.3415C524.296 79.4083 522.923 79.9417 521.334 79.9417C519.655 79.9417 518.213 79.4083 517.01 78.3415C515.807 77.2747 514.888 75.7539 514.253 73.7792C513.617 71.8045 513.299 69.4553 513.299 66.7315C513.299 63.9851 513.617 61.6359 514.253 59.6839C514.888 57.7092 515.807 56.1884 517.01 55.1216C518.213 54.0548 519.655 53.5214 521.334 53.5214C522.923 53.5214 524.296 54.0548 525.454 55.1216C526.612 56.1884 527.508 57.7092 528.144 59.6839C528.779 61.6359 529.097 63.9851 529.097 66.7315C529.097 69.4553 528.779 71.8045 528.144 73.7792C527.508 75.7539 526.612 77.2747 525.454 78.3415ZM603.089 92.8794V63.463C603.112 61.738 603.429 60.2627 604.042 59.037C604.655 57.7886 605.529 56.8353 606.664 56.1771C607.821 55.4961 609.172 55.1557 610.715 55.1557C613.076 55.1557 614.914 55.8933 616.231 57.3687C617.57 58.844 618.228 60.8755 618.206 63.463V92.8794H636.999V59.5136C637.022 55.7231 636.273 52.3525 634.752 49.4018C633.254 46.451 631.132 44.1359 628.386 42.4562C625.662 40.7539 622.45 39.9027 618.75 39.9027C614.914 39.9027 611.555 40.8447 608.673 42.7286C605.813 44.6125 603.815 47.2114 602.68 50.5253H602.136V40.5837H584.295V92.8794H603.089Z" fill="white"/>
</svg>
